<svg width="30" height="30" viewBox="0 0 24 24" fill="none" xmlns="http://www.w3.org/2000/svg" class="no-hover-fill">
	<path
		d="M10 20C15.5228 20 20 15.5228 20 10C20 4.47715 15.5228 0 10 0C4.47715 0 0 4.47715 0 10C0 15.5228 4.47715 20 10 20Z"
		fill="#BEE6FF" />
	<path
		d="M4.08918e-06 10.0021C-0.0012787 11.4188 0.299264 12.8195 0.88162 14.111C1.46398 15.4025 2.31478 16.5551 3.37739 17.4921L4.26087 16.1673C4.26087 16.1673 4.89218 15.9851 5.02826 15.7408C5.45435 14.9738 4.69783 13.6386 4.69783 13.6386C4.68221 13.3186 4.63117 13.0013 4.54565 12.6925C4.43174 12.4086 3.63652 12.0195 3.63652 12.0195C3.63652 12.0195 2.86957 10.7695 2.86957 10.0021C2.85617 9.70117 2.96204 9.40713 3.16418 9.18383C3.36631 8.96053 3.64839 8.826 3.94913 8.80946C4.20285 8.75569 4.44255 8.64957 4.65292 8.4979C4.86329 8.34622 5.0397 8.15232 5.17087 7.92859C5.17087 7.92859 6.13696 7.6725 6.36391 7.27642C6.59087 6.88033 6.1087 5.4612 6.1087 5.4612C6.19801 5.08634 6.19473 4.69538 6.09913 4.32207C5.94067 3.97691 5.69378 3.67977 5.38348 3.46077C5.13409 2.8372 4.75465 2.27396 4.27044 1.80859C2.95128 2.72932 1.87409 3.95514 1.13057 5.38171C0.38704 6.80828 -0.000817373 8.39336 4.08918e-06 10.0021Z"
		fill="#63C863" />
	<path
		d="M10.0011 5.87154e-06C9.73156 5.87154e-06 9.46547 0.0139189 9.20156 0.0347885C9.11461 0.303919 8.66634 0.994788 8.77939 1.30653C8.89243 1.61827 9.82069 1.90827 9.82069 1.90827C9.82069 1.90827 9.57461 2.86957 10.0011 3.21C10.4276 3.55044 11.1094 3.09653 11.3646 3.18174C11.6198 3.26696 11.5633 4.94261 11.5633 4.94261C11.5633 4.94261 12.3872 5.85174 13.1972 5.96566C14.0072 6.07957 15.2407 4.70479 15.2407 4.70479C16.1474 4.49856 17.0347 4.21491 17.8929 3.85696C16.9588 2.6547 15.762 1.68209 14.3941 1.01357C13.0263 0.345056 11.5236 -0.00164549 10.0011 5.87154e-06Z"
		fill="#63C863" />
	<path
		d="M17.3304 10.6533C17.5578 11.1933 16.9035 12.5716 16.3643 12.8407C15.8124 13.0913 15.3314 13.4749 14.9643 13.9572C14.7652 14.2698 14.5039 15.559 13.8508 15.8146C13.1978 16.0703 11.6487 17.5285 10.8248 17.3012C10.0008 17.0738 10.0008 15.1146 10.5691 14.2338C10.9082 13.7081 10.5122 12.5577 10.4822 12.1603C10.4522 11.7629 9.26172 11.0238 9.26172 10.6264C9.26172 10.0012 10.6252 8.35333 10.6252 8.35333C10.6252 8.35333 11.7426 7.98419 12.0835 8.06941C12.4281 8.19475 12.7584 8.35654 13.0687 8.55202C13.6695 8.59686 14.2617 8.72098 14.83 8.92115L15.4822 9.51767C15.4822 9.51767 17.103 10.1146 17.3304 10.6533Z"
		fill="#63C863" />
</svg>
