<?xml version="1.0" encoding="utf-8"?>
<svg xmlns="http://www.w3.org/2000/svg" xmlns:xlink="http://www.w3.org/1999/xlink">
  <defs>

    <svg id="footer-bottom-logo" width="81" height="22" viewBox="0 0 81 22" fill="none" xmlns="http://www.w3.org/2000/svg">
      <g clip-path="url(#clip0)">
      <path fill-rule="evenodd" clip-rule="evenodd" d="M18.2186 12.7869L18.125 17.9872H21.2834V12.7869C21.2834 11.5983 22.2412 10.6315 23.4199 10.6315H24.9053V7.58623L23.4199 7.53967C20.5468 7.53967 18.2186 9.88845 18.2186 12.7869Z" fill="#F58024"/>
      <path fill-rule="evenodd" clip-rule="evenodd" d="M56.9833 7.53967C54.1105 7.53967 51.7812 9.88845 51.7812 12.7869C51.7812 15.685 54.1105 18.0341 56.9833 18.0341C59.8554 18.0341 62.1842 15.685 62.1842 12.7869C62.1842 9.88845 59.8554 7.53967 56.9833 7.53967ZM58.8404 12.7869C58.8404 13.82 58.007 14.6606 56.9833 14.6606C55.9584 14.6606 55.1255 13.82 55.1255 12.7869C55.1255 11.7534 55.9584 10.9126 56.9833 10.9126C58.007 10.9126 58.8404 11.7534 58.8404 12.7869Z" fill="#F58024"/>
      <path fill-rule="evenodd" clip-rule="evenodd" d="M34.998 15.1137C33.8288 15.1137 32.8778 14.1543 32.8778 12.9748C32.8778 11.7953 33.8288 10.8357 34.998 10.8357C36.167 10.8357 37.1182 11.7953 37.1182 12.9748C37.1182 14.1543 36.167 15.1137 34.998 15.1137ZM29.84 12.8238L29.8359 22.0451H32.7105V17.643C33.4002 17.9877 34.1765 18.1821 34.998 18.1821C37.8486 18.1821 40.1595 15.8503 40.1595 12.9748C40.1595 10.099 37.8486 7.76697 34.998 7.76697C32.1973 7.76697 29.9191 10.018 29.84 12.8238Z" fill="#F58024"/>
      <path fill-rule="evenodd" clip-rule="evenodd" d="M45.8186 15.1168C44.6496 15.1168 43.6981 14.1569 43.6981 12.9774C43.6981 11.7981 44.6496 10.8385 45.8186 10.8385C46.9873 10.8385 47.9385 11.7981 47.9385 12.9774C47.9385 14.1569 46.9873 15.1168 45.8186 15.1168ZM43.5309 8.30919V3.90717H40.6562V13.1287C40.7399 15.9342 43.0176 18.1853 45.8186 18.1853C48.669 18.1853 50.9804 15.8532 50.9804 12.9774C50.9804 10.1021 48.669 7.77009 45.8186 7.77009C44.9968 7.77009 44.2205 7.96479 43.5309 8.30919Z" fill="#F58024"/>
      <path fill-rule="evenodd" clip-rule="evenodd" d="M25.7383 7.57466L29.0058 7.5672V17.9909H25.7383V7.57466Z" fill="#F58024"/>
      <path fill-rule="evenodd" clip-rule="evenodd" d="M73.5078 0.00462965V7.41361H80.7319V0H78.0108V0.992545H79.7483V6.42106H74.4917V0.997175H76.2871V0.00462965H73.5078Z" fill="#F58024"/>
      <path fill-rule="evenodd" clip-rule="evenodd" d="M76.3692 5.5417C76.089 5.44525 75.8292 5.3025 75.5898 5.11397L75.9779 4.52009C76.1834 4.67467 76.3932 4.79195 76.6063 4.87143C76.819 4.95116 77.0237 4.99103 77.2203 4.99103C77.4066 4.99103 77.5517 4.95373 77.6547 4.87863C77.7575 4.80378 77.809 4.70373 77.809 4.57796V4.56356C77.809 4.49102 77.786 4.42852 77.7409 4.37528C77.6953 4.32204 77.633 4.27497 77.554 4.23382C77.4752 4.19293 77.384 4.15666 77.2812 4.12528C77.1782 4.0939 77.0716 4.06124 76.9615 4.02729C76.8225 3.98871 76.6826 3.94293 76.5416 3.88968C76.4001 3.8367 76.2734 3.76777 76.1607 3.68341C76.0482 3.59879 75.9562 3.49385 75.8841 3.36808C75.8124 3.24256 75.7767 3.08798 75.7767 2.90434V2.88994C75.7767 2.7063 75.8111 2.54323 75.8807 2.401C75.9498 2.25851 76.0457 2.13633 76.1681 2.035C76.2899 1.93366 76.434 1.85624 76.5987 1.803C76.7642 1.75002 76.9401 1.72327 77.1267 1.72327C77.3661 1.72327 77.6078 1.7621 77.8521 1.83926C78.0963 1.91668 78.3189 2.02291 78.52 2.1582L78.1753 2.78114C77.9933 2.67029 77.809 2.58207 77.6223 2.51674C77.4355 2.45166 77.2631 2.419 77.1053 2.419C76.9375 2.419 76.8073 2.45527 76.7137 2.52754C76.6204 2.60007 76.5737 2.69189 76.5737 2.803V2.81741C76.5737 2.88531 76.5974 2.94421 76.6456 2.99488C76.6933 3.0458 76.7568 3.09158 76.8358 3.13248C76.9148 3.17363 77.0059 3.21118 77.1086 3.24488C77.2119 3.27857 77.3182 3.31484 77.4283 3.35342C77.5673 3.39714 77.706 3.44781 77.8449 3.50568C77.9839 3.56381 78.1096 3.63505 78.222 3.71942C78.3344 3.80404 78.4265 3.90666 78.4984 4.02729C78.5703 4.14817 78.606 4.29555 78.606 4.46942V4.48382C78.606 4.6865 78.5703 4.86294 78.4984 5.01263C78.4265 5.16258 78.3273 5.28681 78.2003 5.38583C78.0736 5.48485 77.924 5.5597 77.7516 5.61037C77.5793 5.6613 77.3947 5.6865 77.1986 5.6865C76.9256 5.6865 76.6492 5.63815 76.3692 5.5417Z" fill="#F58024"/>
      <path fill-rule="evenodd" clip-rule="evenodd" d="M13.8508 14.9422C12.6724 14.9422 11.7143 13.9754 11.7143 12.7869C11.7143 11.5983 12.6724 10.6315 13.8508 10.6315C14.5126 10.6315 15.0972 10.9435 15.4899 11.4216L17.8612 9.44554C16.9067 8.28119 15.4649 7.53967 13.8508 7.53967C10.9774 7.53967 8.64844 9.88845 8.64844 12.7869C8.64844 15.685 10.9774 18.0341 13.8508 18.0341C15.4547 18.0341 16.8878 17.301 17.8421 16.1495L15.4822 14.1611C15.0899 14.6346 14.5083 14.9422 13.8508 14.9422Z" fill="#F58024"/>
      <path fill-rule="evenodd" clip-rule="evenodd" d="M8.21132 16.0232C7.98262 16.4646 7.67413 16.8396 7.28736 17.1472C6.89983 17.4548 6.44933 17.6886 5.93508 17.8486C5.42033 18.0086 4.8709 18.0885 4.28629 18.0885C3.48625 18.0885 2.72113 17.9924 1.99119 17.8005C1.26024 17.6084 0.597103 17.3265 0 16.9545L1.25794 14.5523C1.43514 14.6806 1.64471 14.7992 1.88615 14.908C2.12734 15.017 2.37847 15.113 2.63929 15.1963C2.89934 15.2796 3.15939 15.3437 3.4197 15.3884C3.68001 15.4334 3.91839 15.4556 4.1346 15.4556C4.8579 15.4556 5.22019 15.2318 5.22019 14.7832C5.22019 14.5656 5.10929 14.3985 4.88671 14.2832C4.66439 14.168 4.38828 14.0592 4.05862 13.9566C3.72769 13.8542 3.36871 13.7418 2.98169 13.6202C2.59442 13.4983 2.23519 13.3288 1.90527 13.1106C1.57511 12.8928 1.29823 12.6078 1.07616 12.2554C0.853587 11.9031 0.742682 11.4453 0.742682 10.881C0.742682 10.3815 0.847723 9.93008 1.05755 9.52653C1.26687 9.12247 1.55318 8.77653 1.91445 8.48846C2.27598 8.20014 2.71195 7.97586 3.21931 7.81588C3.72769 7.65538 4.27406 7.57513 4.8579 7.57513C5.55673 7.57513 6.16021 7.63661 6.66859 7.75775C7.1762 7.87992 7.68458 8.05585 8.19219 8.28681L7.04949 10.6315C6.75706 10.4777 6.44601 10.3496 6.11585 10.2472C5.78492 10.1446 5.47438 10.0929 5.18195 10.0929C4.82629 10.0929 4.5466 10.1603 4.34391 10.2948C4.14071 10.4298 4.03924 10.6058 4.03924 10.8236C4.03924 11.0036 4.1504 11.1477 4.37221 11.2562C4.59453 11.365 4.87447 11.4676 5.21076 11.5636C5.54704 11.6598 5.90908 11.7652 6.29686 11.8804C6.68414 11.9962 7.04617 12.1595 7.38271 12.3709C7.719 12.5826 7.99843 12.8578 8.22126 13.1976C8.44307 13.5371 8.55398 13.9759 8.55398 14.5139C8.55398 15.0777 8.44001 15.5803 8.21132 16.0232Z" fill="#F58024"/>
      <path fill-rule="evenodd" clip-rule="evenodd" d="M29.1017 4.23562C29.1017 5.26881 28.2685 6.1096 27.2446 6.1096C26.2194 6.1096 25.3867 5.26881 25.3867 4.23562C25.3867 3.20218 26.2194 2.36139 27.2446 2.36139C28.2685 2.36139 29.1017 3.20218 29.1017 4.23562Z" fill="#F58024"/>
      <path fill-rule="evenodd" clip-rule="evenodd" d="M66.8303 10.3023L64.8185 7.5304H61.1836L65.0334 12.7784L61.2586 17.9798H64.8113L66.8303 15.2277L68.8493 17.9798H72.4021L68.6272 12.7784L72.4768 7.5304H68.8422L66.8303 10.3023Z" fill="#F58024"/>
      </g>
      <defs>
      <clipPath id="clip0">
      <rect width="81" height="22" fill="white"/>
      </clipPath>
      </defs>
    </svg>

    <svg id="phone-icon" width="16" height="17" viewBox="0 0 16 17" fill="none" xmlns="http://www.w3.org/2000/svg">
    <path d="M2.29356 1.23714C2.68414 0.846881 3.31647 0.846881 3.70705 1.23714L6.28431 3.81621C6.67389 4.20647 6.67289 4.83826 6.28331 5.22752L4.32465 7.18453C4.14039 7.36839 4.14051 7.66635 4.32465 7.84976L8.65353 12.175C8.83756 12.3583 9.1353 12.3583 9.31933 12.175L11.275 10.221C11.6656 9.83073 12.2999 9.83073 12.6895 10.223L15.2647 12.812C15.6533 13.2023 15.6523 13.8321 15.2627 14.2213L13.5679 15.9148C13.1928 16.2895 12.6832 16.5073 12.1541 16.474C5.78034 16.0733 0.654732 11.0793 0.0580528 4.76923C-0.0168575 3.97702 0.316316 3.21185 0.879345 2.64954L2.29356 1.23714ZM8 0.5C12.411 0.5 16 4.089 16 8.5H14C14 5.191 11.309 2.5 8 2.5V0.5Z" fill="#737373"/>
    </svg>

    <svg id="whatsapp" width="16" height="17" viewBox="0 0 16 17" fill="none" xmlns="http://www.w3.org/2000/svg">
    <g clip-path="url(#clip0_23460_108260)">
    <g clip-path="url(#clip1_23460_108260)">
    <path d="M13.6 2.8C12.1 1.3 10.2 0.5 8 0.5C3.7 0.5 0.1 4.1 0.1 8.4C0.1 9.8 0.5 11.2 1.2 12.4L0 16.5L4.2 15.4C5.4 16 6.7 16.4 8 16.4C12.4 16.4 15.9 12.8 15.9 8.5C16 6.3 15.1 4.3 13.6 2.8ZM11.9 11.3C11.7 11.8 10.9 12.2 10.6 12.2C10.3 12.3 9.3 12.2 8.2 11.7C6.2 10.8 4.9 8.8 4.8 8.7C4.7 8.6 4 7.6 4 6.7C4 5.8 4.5 5.2 4.7 5C5.1 4.6 5.9 4.7 6.1 5.1C6.2 5.5 6.6 6.5 6.7 6.6C6.8 6.7 6.8 7.1 6.5 7.3C6.4 7.3 5.9 7.7 6.1 8C6.2 8.2 6.6 8.8 7.2 9.4C8 10.1 8.6 10.3 8.8 10.4C9 10.5 9.1 10.5 9.2 10.3C9.3 10.2 9.7 9.7 9.8 9.5C9.9 9.3 10.1 9.3 10.2 9.4C10.3 9.5 11.4 9.9 11.6 10C11.8 10.2 12 10.2 12 10.3C12.1 10.4 12.1 10.8 11.9 11.3Z" fill="#737373"/>
    </g>
    </g>
    <defs>
    <clipPath id="clip0_23460_108260">
    <rect width="16" height="16" fill="white" transform="translate(0 0.5)"/>
    </clipPath>
    <clipPath id="clip1_23460_108260">
    <rect width="16" height="16" fill="white" transform="translate(0 0.5)"/>
    </clipPath>
    </defs>
    </svg>

    <svg id="email" width="16" height="17" viewBox="0 0 16 17" fill="none" xmlns="http://www.w3.org/2000/svg">
    <path d="M15 2.5H1C0.4 2.5 0 2.9 0 3.5V4.9L8 9.4L16 5V3.5C16 2.9 15.6 2.5 15 2.5Z" fill="#737373"/>
    <path d="M7.5 11.3992L0 7.19922V14.4992C0 15.0992 0.4 15.4992 1 15.4992H15C15.6 15.4992 16 15.0992 16 14.4992V7.19922L8.5 11.3992C8.22 11.5392 7.78 11.5392 7.5 11.3992Z" fill="#737373"/>
    </svg>

    <svg id="reach-us" width="16" height="17" viewBox="0 0 16 17" fill="none" xmlns="http://www.w3.org/2000/svg">
    <g clip-path="url(#clip0_23460_108272)">
    <path d="M8 0.5C4.1 0.5 1 3.6 1 7.5C1 9.4 1.7 11.2 3.1 12.5C3.2 12.6 7.2 16.2 7.3 16.3C7.7 16.6 8.3 16.6 8.6 16.3C8.7 16.2 12.8 12.6 12.8 12.5C14.2 11.2 14.9 9.4 14.9 7.5C15 3.6 11.9 0.5 8 0.5ZM8 9.5C6.9 9.5 6 8.6 6 7.5C6 6.4 6.9 5.5 8 5.5C9.1 5.5 10 6.4 10 7.5C10 8.6 9.1 9.5 8 9.5Z" fill="#737373"/>
    </g>
    <defs>
    <clipPath id="clip0_23460_108272">
    <rect width="16" height="16" fill="white" transform="translate(0 0.5)"/>
    </clipPath>
    </defs>
    </svg>

    <svg id="my-first-crore" width="40" height="40" viewBox="0 0 40 40" fill="none" xmlns="http://www.w3.org/2000/svg">
    <path fill-rule="evenodd" clip-rule="evenodd" d="M32.0535 6.14313L27.2628 13.2923L19.9824 6.14313H32.0535Z" fill="#E9F1FC"/>
    <path fill-rule="evenodd" clip-rule="evenodd" d="M18.6902 6.3985L11.4362 13.1523L6.61914 6.3985H18.6902Z" fill="#E9F1FC"/>
    <path fill-rule="evenodd" clip-rule="evenodd" d="M32.5274 6.59863L37.3452 13.202H28.0801L32.5274 6.59863Z" fill="#AED1FD"/>
    <path fill-rule="evenodd" clip-rule="evenodd" d="M1.38086 13.9906H11.3434L18.1084 31.4941L1.38086 13.9906Z" fill="#8DBFFF"/>
    <path fill-rule="evenodd" clip-rule="evenodd" d="M6.19999 6.58264L10.7183 13.3351H1.68164L6.19999 6.58264Z" fill="#AED1FD"/>
    <path fill-rule="evenodd" clip-rule="evenodd" d="M19.5554 32.2906L11.7871 13.4969H27.1148L19.5554 32.2906Z" fill="#AED1FD"/>
    <path fill-rule="evenodd" clip-rule="evenodd" d="M20.1992 32.6484L27.5791 14.131H37.6835L20.1992 32.6484Z" fill="#8DBFFF"/>
    <path fill-rule="evenodd" clip-rule="evenodd" d="M19.4118 6.3985L26.2957 13.3352H12.6562L19.4118 6.3985Z" fill="#CCE2FF"/>
    <path d="M1.68164 13.732H37.3457" stroke="#5890DA" stroke-width="1.5" stroke-linecap="round"/>
    <path d="M6.5 6.23224L11.4749 13.732L19.5563 33.1306L27.3252 13.732L32.3247 6.23224" stroke="#5890DA" stroke-width="1.5" stroke-linejoin="round"/>
    <path d="M11.6797 13.732L19.4114 6L27.3242 13.732" stroke="#5890DA" stroke-width="1.5" stroke-linecap="round" stroke-linejoin="round"/>
    <path fill-rule="evenodd" clip-rule="evenodd" d="M19.5547 33.4844L38.1429 13.732L32.5372 6H6.31855L1 13.732L19.5547 33.4844Z" stroke="#5890DA" stroke-width="1.5" stroke-linejoin="round"/>
    </svg>

    <svg id="retire-confidently" width="40" height="40" viewBox="0 0 40 40" fill="none" xmlns="http://www.w3.org/2000/svg">
    <path fill-rule="evenodd" clip-rule="evenodd" d="M33.4998 14.3005C33.4726 14.2973 33.4456 14.2979 33.4184 14.2952C33.1984 7.69742 27.7662 2.39709 21.1158 2.39709H18.1148C11.4644 2.39709 6.03226 7.69742 5.81225 14.2953C5.78508 14.2979 5.75803 14.2973 5.73087 14.3005C4.49749 14.446 5.1907 21.0674 7.81047 34.1649H31.4202C34.04 21.0674 34.7332 14.446 33.4998 14.3005Z" fill="#E9A97A"/>
    <path d="M9.02344 23.6027C20.2545 20.8238 28.9938 23.2262 30.202 23.5899" stroke="#B66428" stroke-width="1.5" stroke-linecap="round"/>
    <path fill-rule="evenodd" clip-rule="evenodd" d="M37.1697 17.4305C37.4159 18.9453 36.7119 20.3921 35.3759 21.1164C35.2266 21.1974 35.1334 21.3537 35.1334 21.5236V36.4861C35.1334 36.885 34.809 37.2093 34.4104 37.2093H30.9105C30.5119 37.2093 30.1875 36.885 30.1875 36.4861V18.0239C30.1875 17.0206 30.6178 16.0626 31.3683 15.3955C32.0203 14.8158 32.8351 14.5081 33.6978 14.5081C33.8455 14.5087 33.9884 14.5169 34.1322 14.5339C35.6731 14.7156 36.9223 15.9068 37.1697 17.4305Z" fill="#E6965B" stroke="#B66428" stroke-width="1.5"/>
    <path fill-rule="evenodd" clip-rule="evenodd" d="M2.04901 17.4305C1.80289 18.9453 2.50686 20.3921 3.84286 21.1164C3.99216 21.1974 4.08536 21.3537 4.08536 21.5236V36.4861C4.08536 36.885 4.40975 37.2093 4.80833 37.2093H8.30828C8.70686 37.2093 9.03125 36.885 9.03125 36.4861V18.0239C9.03125 17.0206 8.601 16.0626 7.85043 15.3955C7.19848 14.8158 6.38367 14.5081 5.5209 14.5081C5.37324 14.5087 5.23039 14.5169 5.08657 14.5339C3.54562 14.7156 2.29648 15.9068 2.04901 17.4305Z" fill="#E6965B" stroke="#B66428" stroke-width="1.5"/>
    <path d="M5.99805 13.612C6.22737 7.17049 11.5356 2 18.0324 2H21.1939C27.6905 2 32.9987 7.17029 33.2282 13.6117" stroke="#B66428" stroke-width="1.5" stroke-linecap="round"/>
    <path fill-rule="evenodd" clip-rule="evenodd" d="M8.77344 34.2685H29.952H8.77344Z" stroke="#B66428" stroke-width="1.5"/>
    </svg>

    <svg id="child-education" width="40" height="40" viewBox="0 0 40 40" fill="none" xmlns="http://www.w3.org/2000/svg">
    <path fill-rule="evenodd" clip-rule="evenodd" d="M32.7775 27.9984C32.7775 30.6087 30.6637 32.7444 28.0802 32.7444H12.1094C9.52589 32.7444 7.41211 30.6087 7.41211 27.9984V16.8511H32.7775V27.9984Z" fill="#93B4FF" stroke="#5A82DF" stroke-width="1.5"/>
    <path fill-rule="evenodd" clip-rule="evenodd" d="M20.0994 22.4454L1.28673 15.4399C1.05887 15.355 0.942947 15.1015 1.0278 14.8737C1.07345 14.7511 1.17125 14.6552 1.29469 14.6119L20.1508 8L38.8103 14.5619C39.0397 14.6426 39.1602 14.8939 39.0796 15.1233C39.0364 15.246 38.9412 15.3433 38.8195 15.3892L20.0994 22.4454Z" fill="#BDD1FF" stroke="#5A82DF" stroke-width="1.5" stroke-linejoin="round"/>
    <path d="M37.834 15.8484V27.9183" stroke="#5A82DF" stroke-width="1.5" stroke-linecap="round"/>
    </svg>

    <svg id="dream-planner" width="40" height="40" viewBox="0 0 40 40" fill="none" xmlns="http://www.w3.org/2000/svg">
    <path fill-rule="evenodd" clip-rule="evenodd" d="M26.4394 23.6375C26.2162 23.7716 27.4314 23.4868 29.5342 23.4868C33.0228 23.4868 35.8856 26.2583 35.8856 29.6127C35.8856 33.011 33.0228 35.7847 29.5342 35.7847H7.35133C3.86277 35.7847 1 33.0132 1 29.6589C1 26.4255 3.59222 23.7969 6.84872 23.5506C7.01369 23.5396 7.47781 22.4618 7.34363 22.4728C8.50612 18.6268 12.263 15.8982 16.7799 15.8982C21.7444 15.8982 25.8147 19.2086 26.4405 23.6353L26.4394 23.6375Z" fill="#B1ACF5"/>
    <path d="M35.5984 6.0419C31.9471 5.81974 28.8071 6.49832 26.5448 7.6663C23.0871 9.45017 20.0077 12.6132 18.5449 16.0248M38.9572 10.3773C35.2321 9.40398 31.3466 9.96158 28.1791 11.6828C25.643 13.0532 23.5817 15.1598 22.2666 17.7251M36.3264 14.297C33.7089 14.0506 31.6776 14.407 29.3207 15.8334C27.5215 16.9332 26.0873 18.6159 25.1602 20.6197" stroke="#6F66D1" stroke-width="1.5" stroke-linecap="round"/>
    <path d="M7.02344 22.7885C8.18592 18.9425 11.9428 16.2139 16.4597 16.2139C21.4242 16.2139 25.4945 19.5243 26.1203 23.951" stroke="#6F66D1" stroke-width="1.3" stroke-linecap="round"/>
    <path d="M24.2552 26.144C25.4177 24.4448 27.4303 23.4165 29.5342 23.4165C33.0228 23.4165 35.8856 26.188 35.8856 29.5424C35.8856 32.9408 33.0228 35.7144 29.5342 35.7144H7.35133C3.86277 35.7144 1 32.943 1 29.5886C1 26.1902 3.86277 23.4627 7.35133 23.4627C9.27598 23.4627 11.0631 24.3128 12.2707 25.7437" stroke="#6F66D1" stroke-width="1.5" stroke-linecap="round"/>
    </svg>

    <svg id="twitter-icon" width="20" height="18" viewBox="0 0 20 18" fill="none" xmlns="http://www.w3.org/2000/svg">
    <g clip-path="url(#clip0_23460_108165)">
    <path d="M19.2665 1.65057C18.4874 2.11583 17.6265 2.45583 16.7065 2.63478C16.334 2.23166 15.8801 1.90949 15.3738 1.68886C14.8676 1.46824 14.3201 1.35402 13.7665 1.35352C11.5438 1.35352 9.73922 3.17341 9.73922 5.4192C9.73922 5.73683 9.77376 6.04552 9.84285 6.34436C6.49558 6.17436 3.5274 4.55846 1.53922 2.09436C1.18045 2.71878 0.992504 3.42417 0.993761 4.14152C0.993761 5.55162 1.70467 6.7962 2.78649 7.52541C2.1447 7.50407 1.51772 7.33 0.959215 7.01809V7.0682C0.959215 9.03931 2.35012 10.6829 4.19376 11.0551C3.85558 11.1509 3.49922 11.1983 3.13194 11.1983C2.87746 11.1987 2.62353 11.1747 2.37376 11.1267C2.8874 12.7417 4.37376 13.9183 6.1374 13.9487C4.72136 15.076 2.95503 15.6907 1.13376 15.6899C0.809215 15.6899 0.488306 15.672 0.172852 15.6344C2.00503 16.8248 4.15202 17.4594 6.3474 17.4597C13.7583 17.4597 17.811 11.2654 17.811 5.89073C17.811 5.71446 17.8065 5.5382 17.8001 5.36462C18.5914 4.78672 19.2717 4.07473 19.8092 3.26199C19.0754 3.58915 18.2952 3.80456 17.4956 3.90083C18.3423 3.38584 18.9712 2.58696 19.2665 1.65146" fill="#737373"/>
    </g>
    <defs>
    <clipPath id="clip0_23460_108165">
    <rect width="20" height="17" fill="white" transform="translate(0 0.5)"/>
    </clipPath>
    </defs>
    </svg>

    <svg id="facebook-icon" width="20" height="20" viewBox="0 0 20 20" fill="none" xmlns="http://www.w3.org/2000/svg">
    <path d="M19 15C19 17.2091 17.2091 19 15 19H13.4989V12.1891H15.8749L16.2349 9.27057H13.5006V7.75171C13.5006 6.97343 13.7149 6.35029 14.8651 6.35029H16.4997V4.03086C16.4168 4.02517 16.3264 4.01842 16.2285 4.01112C15.7364 3.97441 15.0569 3.92371 14.2111 3.92371C12.1 3.92371 10.4997 5.17943 10.4997 7.486V9.27143H8.00029V12.1891H10.4997V19H5C2.79086 19 1 17.2091 1 15V5C1 2.79086 2.79086 1 5 1H15C17.2091 1 19 2.79086 19 5V15Z" fill="#737373"/>
    </svg>

    <svg id="linkedin-icon" width="20" height="18" viewBox="0 0 20 18" fill="none" xmlns="http://www.w3.org/2000/svg">
    <path fill-rule="evenodd" clip-rule="evenodd" d="M15.0525 5.655C17.8232 5.655 20 7.413 20 11.201V18H15.5798V11.672C15.5798 10.016 14.8889 8.885 13.3677 8.885C12.2051 8.885 11.5586 9.648 11.2576 10.384C11.1444 10.648 11.1616 11.015 11.1616 11.383V18H6.78283C6.78283 18 6.83939 6.791 6.78283 5.772H11.1616V7.691C11.4202 6.852 12.8202 5.655 15.0525 5.655ZM0.50404 5.772H4.40202V18H0.50404V5.772ZM2.38081 0C3.81919 0 4.70404 0.913 4.73232 2.12C4.73232 3.304 3.81919 4.242 2.35455 4.242H2.32626C0.915152 4.242 0 3.308 0 2.123C0 0.915 0.941414 0 2.38081 0Z" fill="#737373"/>
    </svg>

    <svg id="app-store" width="16" height="16" viewBox="0 0 16 16" fill="none" xmlns="http://www.w3.org/2000/svg">
    <g clip-path="url(#clip0_23460_108153)">
    <path d="M14.2361 11.0167C13.3441 10.6793 12.7475 9.86933 12.6801 8.90333C12.6141 7.962 13.0755 7.126 13.9141 6.66667L14.6115 6.28467L14.1135 5.66467C13.2768 4.62267 12.0795 4 10.9108 4C10.1008 4 9.53881 4.212 9.08748 4.38267C8.76881 4.50333 8.51748 4.598 8.24148 4.598C7.92681 4.598 7.61615 4.48733 7.25615 4.35933C6.78415 4.19133 6.24948 4.00067 5.56281 4.00067C4.23615 4.00067 2.89815 4.79267 2.07148 6.066C0.83748 7.96533 1.17615 11.222 2.87681 13.81C3.55081 14.8353 4.49548 16.0133 5.83348 16.0253C5.84215 16.0253 5.85081 16.0253 5.85948 16.0253C6.95481 16.0253 7.19481 15.4413 8.25815 15.4347C9.41948 15.4893 9.56615 16.03 10.6508 16.0227C11.9581 16.0107 12.9008 14.842 13.6501 13.7C14.0928 13.0287 14.2641 12.6773 14.6088 11.9147L14.9008 11.268L14.2361 11.0167Z" fill="#737373"/>
    <path d="M10.0671 2.30087C10.5005 1.74487 10.8291 0.960203 10.7098 0.158203C10.0018 0.20687 9.17512 0.65687 8.69178 1.24354C8.25312 1.7762 7.89112 2.56554 8.03178 3.33354C8.80378 3.35754 9.60312 2.8962 10.0671 2.30087Z" fill="#737373"/>
    </g>
    <defs>
    <clipPath id="clip0_23460_108153">
    <rect width="16" height="16" fill="white"/>
    </clipPath>
    </defs>
    </svg>

    <svg id="play-store" width="13" height="16" viewBox="0 0 13 16" fill="none" xmlns="http://www.w3.org/2000/svg">
    <path d="M0 1.86175V14.0488C0 14.2689 0.017221 14.4323 0.0524118 14.537L6.79107 7.98251L0 1.45025V1.86175ZM7.35113 7.98251L9.60259 5.66697L9.65875 5.72146L12.4104 7.26563C13.1965 7.70723 13.1965 8.42411 12.4104 8.865L9.60259 10.354L7.35113 7.98251ZM7.05762 8.29579L0.280778 14.8761C0.561555 15.1514 0.954644 15.1514 1.46004 14.9313L9.25742 10.5382L7.05762 8.29579ZM9.25742 5.45549L1.46004 1.08966C0.954644 0.813659 0.561555 0.868859 0.280778 1.14486L7.06361 7.63267L9.25742 5.45549Z" fill="#737373"/>
    </svg>


  </defs>
</svg>




