<svg width="20" height="18" viewBox="0 0 20 18" fill="none" xmlns="http://www.w3.org/2000/svg">
<path fill-rule="evenodd" clip-rule="evenodd" d="M15.0525 5.655C17.8232 5.655 20 7.413 20 11.201V18H15.5798V11.672C15.5798 10.016 14.8889 8.885 13.3677 8.885C12.2051 8.885 11.5586 9.648 11.2576 10.384C11.1444 10.648 11.1616 11.015 11.1616 11.383V18H6.78283C6.78283 18 6.83939 6.791 6.78283 5.772H11.1616V7.691C11.4202 6.852 12.8202 5.655 15.0525 5.655ZM0.50404 5.772H4.40202V18H0.50404V5.772ZM2.38081 0C3.81919 0 4.70404 0.913 4.73232 2.12C4.73232 3.304 3.81919 4.242 2.35455 4.242H2.32626C0.915152 4.242 0 3.308 0 2.123C0 0.915 0.941414 0 2.38081 0Z" fill="#737373"/>
</svg>
