<svg width="20" height="20" viewBox="0 0 20 20" fill="none" xmlns="http://www.w3.org/2000/svg">
<path d="M19 15C19 17.2091 17.2091 19 15 19H13.4989V12.1891H15.8749L16.2349 9.27057H13.5006V7.75171C13.5006 6.97343 13.7149 6.35029 14.8651 6.35029H16.4997V4.03086C16.4168 4.02517 16.3264 4.01842 16.2285 4.01112C15.7364 3.97441 15.0569 3.92371 14.2111 3.92371C12.1 3.92371 10.4997 5.17943 10.4997 7.486V9.27143H8.00029V12.1891H10.4997V19H5C2.79086 19 1 17.2091 1 15V5C1 2.79086 2.79086 1 5 1H15C17.2091 1 19 2.79086 19 5V15Z" fill="#737373"/>
</svg>
