<svg width="24" height="24" viewBox="0 0 24 24" fill="none" xmlns="http://www.w3.org/2000/svg">
<path fill-rule="evenodd" clip-rule="evenodd" d="M19.8362 8.6808C19.8205 8.67893 19.8047 8.67929 19.7889 8.67773C19.6611 4.84371 16.5044 1.76367 12.6399 1.76367H10.896C7.03139 1.76367 3.87474 4.84371 3.74689 8.67776C3.7311 8.67931 3.71538 8.67895 3.6996 8.6808C2.98288 8.76532 3.3857 12.6131 4.90806 20.2241H18.6278C20.1501 12.6131 20.553 8.76532 19.8362 8.6808Z" fill="#E9A97A"/>
<path d="M5.61426 14.0875C12.1407 12.4727 17.2191 13.8688 17.9212 14.0801" stroke="#B66428" stroke-width="1.5" stroke-linecap="round"/>
<path fill-rule="evenodd" clip-rule="evenodd" d="M21.9734 10.499C22.1164 11.3792 21.7074 12.22 20.931 12.6409C20.8442 12.688 20.7901 12.7788 20.7901 12.8775V21.5723C20.7901 21.8041 20.6016 21.9926 20.37 21.9926H18.3361C18.1045 21.9926 17.916 21.8041 17.916 21.5723V10.8438C17.916 10.2608 18.166 9.70412 18.6022 9.31647C18.981 8.97956 19.4545 8.80078 19.9559 8.80078C20.0417 8.80111 20.1247 8.80591 20.2083 8.81577C21.1037 8.92132 21.8296 9.61355 21.9734 10.499Z" fill="#E6965B" stroke="#B66428" stroke-width="1.5"/>
<path fill-rule="evenodd" clip-rule="evenodd" d="M1.56173 10.499C1.41871 11.3792 1.82779 12.22 2.60415 12.6409C2.69091 12.688 2.74506 12.7788 2.74506 12.8775V21.5723C2.74506 21.8041 2.93357 21.9926 3.16519 21.9926H5.19902C5.43064 21.9926 5.61914 21.8041 5.61914 21.5723V10.8438C5.61914 10.2608 5.36912 9.70412 4.93296 9.31647C4.55411 8.97956 4.08062 8.80078 3.57926 8.80078C3.49346 8.80111 3.41044 8.80591 3.32687 8.81577C2.43142 8.92132 1.70554 9.61355 1.56173 10.499Z" fill="#E6965B" stroke="#B66428" stroke-width="1.5"/>
<path d="M3.85742 8.281C3.99068 4.53779 7.07534 1.5332 10.8506 1.5332H12.6878C16.463 1.5332 19.5476 4.53768 19.681 8.28079" stroke="#B66428" stroke-width="1.5" stroke-linecap="round"/>
<path fill-rule="evenodd" clip-rule="evenodd" d="M5.47168 20.2852H17.7786H5.47168Z" stroke="#B66428" stroke-width="1.5"/>
</svg>
