<svg width="16" height="16" viewBox="0 0 16 16" fill="none" xmlns="http://www.w3.org/2000/svg">
<g clip-path="url(#clip0_23460_108153)">
<path d="M14.2361 11.0167C13.3441 10.6793 12.7475 9.86933 12.6801 8.90333C12.6141 7.962 13.0755 7.126 13.9141 6.66667L14.6115 6.28467L14.1135 5.66467C13.2768 4.62267 12.0795 4 10.9108 4C10.1008 4 9.53881 4.212 9.08748 4.38267C8.76881 4.50333 8.51748 4.598 8.24148 4.598C7.92681 4.598 7.61615 4.48733 7.25615 4.35933C6.78415 4.19133 6.24948 4.00067 5.56281 4.00067C4.23615 4.00067 2.89815 4.79267 2.07148 6.066C0.83748 7.96533 1.17615 11.222 2.87681 13.81C3.55081 14.8353 4.49548 16.0133 5.83348 16.0253C5.84215 16.0253 5.85081 16.0253 5.85948 16.0253C6.95481 16.0253 7.19481 15.4413 8.25815 15.4347C9.41948 15.4893 9.56615 16.03 10.6508 16.0227C11.9581 16.0107 12.9008 14.842 13.6501 13.7C14.0928 13.0287 14.2641 12.6773 14.6088 11.9147L14.9008 11.268L14.2361 11.0167Z" fill="#737373"/>
<path d="M10.0671 2.30087C10.5005 1.74487 10.8291 0.960203 10.7098 0.158203C10.0018 0.20687 9.17512 0.65687 8.69178 1.24354C8.25312 1.7762 7.89112 2.56554 8.03178 3.33354C8.80378 3.35754 9.60312 2.8962 10.0671 2.30087Z" fill="#737373"/>
</g>
<defs>
<clipPath id="clip0_23460_108153">
<rect width="16" height="16" fill="white"/>
</clipPath>
</defs>
</svg>
