<svg width="20" height="18" viewBox="0 0 20 18" fill="none" xmlns="http://www.w3.org/2000/svg">
<g clip-path="url(#clip0_23460_108165)">
<path d="M19.2665 1.65057C18.4874 2.11583 17.6265 2.45583 16.7065 2.63478C16.334 2.23166 15.8801 1.90949 15.3738 1.68886C14.8676 1.46824 14.3201 1.35402 13.7665 1.35352C11.5438 1.35352 9.73922 3.17341 9.73922 5.4192C9.73922 5.73683 9.77376 6.04552 9.84285 6.34436C6.49558 6.17436 3.5274 4.55846 1.53922 2.09436C1.18045 2.71878 0.992504 3.42417 0.993761 4.14152C0.993761 5.55162 1.70467 6.7962 2.78649 7.52541C2.1447 7.50407 1.51772 7.33 0.959215 7.01809V7.0682C0.959215 9.03931 2.35012 10.6829 4.19376 11.0551C3.85558 11.1509 3.49922 11.1983 3.13194 11.1983C2.87746 11.1987 2.62353 11.1747 2.37376 11.1267C2.8874 12.7417 4.37376 13.9183 6.1374 13.9487C4.72136 15.076 2.95503 15.6907 1.13376 15.6899C0.809215 15.6899 0.488306 15.672 0.172852 15.6344C2.00503 16.8248 4.15202 17.4594 6.3474 17.4597C13.7583 17.4597 17.811 11.2654 17.811 5.89073C17.811 5.71446 17.8065 5.5382 17.8001 5.36462C18.5914 4.78672 19.2717 4.07473 19.8092 3.26199C19.0754 3.58915 18.2952 3.80456 17.4956 3.90083C18.3423 3.38584 18.9712 2.58696 19.2665 1.65146" fill="#737373"/>
</g>
<defs>
<clipPath id="clip0_23460_108165">
<rect width="20" height="17" fill="white" transform="translate(0 0.5)"/>
</clipPath>
</defs>
</svg>
