<svg width="24" height="24" viewBox="0 0 24 24" fill="none" xmlns="http://www.w3.org/2000/svg">
<path fill-rule="evenodd" clip-rule="evenodd" d="M15.7386 12.232C15.6091 12.3098 16.3141 12.1446 17.534 12.1446C19.5578 12.1446 21.2186 13.7524 21.2186 15.6984C21.2186 17.6698 19.5578 19.2789 17.534 19.2789H4.66506C2.64125 19.2789 0.980469 17.6711 0.980469 15.7251C0.980469 13.8494 2.48429 12.3245 4.37348 12.1816C4.46919 12.1752 4.73843 11.5499 4.66059 11.5563C5.33499 9.32513 7.51448 7.74219 10.1348 7.74219C13.0149 7.74219 15.3762 9.66264 15.7392 12.2307L15.7386 12.232Z" fill="#B1ACF5"/>
<path d="M21.0504 2.02431C18.9322 1.89543 17.1106 2.28909 15.7982 2.96667C13.7923 4.00155 12.0058 5.8365 11.1572 7.81566M22.999 4.5394C20.838 3.97475 18.5838 4.29823 16.7463 5.29674C15.2751 6.09174 14.0792 7.31386 13.3163 8.80204M21.4728 6.81332C19.9543 6.6704 18.7759 6.87712 17.4086 7.70464C16.3648 8.34266 15.5328 9.31884 14.9949 10.4813" stroke="#6F66D1" stroke-width="1.5" stroke-linecap="round"/>
<path d="M4.46875 11.7399C5.14314 9.50872 7.32263 7.92578 9.943 7.92578C12.823 7.92578 15.1844 9.84623 15.5474 12.4143" stroke="#6F66D1" stroke-width="1.3" stroke-linecap="round"/>
<path d="M14.4676 13.6858C15.142 12.7001 16.3096 12.1035 17.5301 12.1035C19.5539 12.1035 21.2147 13.7113 21.2147 15.6573C21.2147 17.6288 19.5539 19.2379 17.5301 19.2379H4.66115C2.63734 19.2379 0.976562 17.6301 0.976562 15.6841C0.976562 13.7126 2.63734 12.1303 4.66115 12.1303C5.7777 12.1303 6.81449 12.6235 7.51504 13.4536" stroke="#6F66D1" stroke-width="1.5" stroke-linecap="round"/>
</svg>
