<svg width="13" height="16" viewBox="0 0 13 16" fill="none" xmlns="http://www.w3.org/2000/svg">
<path d="M0 1.86175V14.0488C0 14.2689 0.017221 14.4323 0.0524118 14.537L6.79107 7.98251L0 1.45025V1.86175ZM7.35113 7.98251L9.60259 5.66697L9.65875 5.72146L12.4104 7.26563C13.1965 7.70723 13.1965 8.42411 12.4104 8.865L9.60259 10.354L7.35113 7.98251ZM7.05762 8.29579L0.280778 14.8761C0.561555 15.1514 0.954644 15.1514 1.46004 14.9313L9.25742 10.5382L7.05762 8.29579ZM9.25742 5.45549L1.46004 1.08966C0.954644 0.813659 0.561555 0.868859 0.280778 1.14486L7.06361 7.63267L9.25742 5.45549Z" fill="#737373"/>
</svg>
