                      <svg
                        width="20"
                        height="20"
                        viewBox="0 0 20 20"
                        fill="none"
                        xmlns="http://www.w3.org/2000/svg"
                      >
                        <path
                          d="M24.1668 6.24935H-4.1665V0.346571C-4.1665 -0.305686 -3.63821 -0.833984 -2.98595 -0.833984H22.9863C23.6385 -0.833984 24.1668 -0.305686 24.1668 0.346571V6.24935Z"
                          fill="#FD9840"
                        />
                        <path d="M24.1668 6.25H-4.1665V13.3333H24.1668V6.25Z" fill="white" />
                        <path
                          d="M24.1668 19.2348C24.1668 19.8871 23.6385 20.4154 22.9863 20.4154H-2.98595C-3.63821 20.4154 -4.1665 19.8871 -4.1665 19.2348V13.332H24.1668V19.2348Z"
                          fill="#1B8717"
                        />
                        <path
                          d="M10.0002 8.125C9.07975 8.125 8.3335 8.87125 8.3335 9.79167C8.3335 10.7121 9.07975 11.4583 10.0002 11.4583C10.9206 11.4583 11.6668 10.7121 11.6668 9.79167C11.6668 8.87125 10.9206 8.125 10.0002 8.125Z"
                          fill="#2D39FA"
                        />
                      </svg>