<svg width="14" height="13" viewBox="0 0 14 13" fill="none" xmlns="http://www.w3.org/2000/svg">
<path d="M5 3.30039V0.900391H9V3.30039" stroke="#404040" stroke-width="1.3" stroke-linecap="round" stroke-linejoin="round"/>
<path d="M1.8 3.30078H12.2C12.4122 3.30078 12.6157 3.38507 12.7657 3.5351C12.9157 3.68512 13 3.88861 13 4.10078V8.10078H1V4.10078C1 3.88861 1.08429 3.68512 1.23431 3.5351C1.38434 3.38507 1.58783 3.30078 1.8 3.30078V3.30078Z" stroke="#404040" stroke-width="1.3" stroke-linecap="round" stroke-linejoin="round"/>
<path d="M12.1998 9.70117V11.3012C12.1998 11.5133 12.1155 11.7168 11.9655 11.8669C11.8155 12.0169 11.612 12.1012 11.3998 12.1012H2.5998C2.38763 12.1012 2.18415 12.0169 2.03412 11.8669C1.88409 11.7168 1.7998 11.5133 1.7998 11.3012V9.70117" stroke="#404040" stroke-width="1.3" stroke-linecap="round" stroke-linejoin="round"/>
</svg>
