<svg width="18" height="18" viewBox="0 0 18 18" fill="none" xmlns="http://www.w3.org/2000/svg">
<path d="M13.6931 9.0408C13.7016 8.38922 13.8768 7.75035 14.2024 7.18363C14.5279 6.61691 14.9933 6.14076 15.5553 5.79948C15.1983 5.29583 14.7274 4.88135 14.1799 4.58895C13.6324 4.29656 13.0234 4.1343 12.4014 4.11508C11.0744 3.97747 9.78799 4.8995 9.11178 4.8995C8.4225 4.8995 7.38139 4.12874 6.26028 4.15152C5.53512 4.17467 4.8284 4.38299 4.20896 4.75619C3.58953 5.12938 3.07852 5.65473 2.72571 6.28105C1.19747 8.895 2.3374 12.7366 3.80135 14.8496C4.53381 15.8842 5.38983 17.04 6.50992 16.999C7.606 16.9541 8.01537 16.3085 9.33842 16.3085C10.6492 16.3085 11.0333 16.999 12.1761 16.9729C13.3522 16.9541 14.0933 15.9337 14.8 14.8892C15.3263 14.152 15.7312 13.3372 15.9999 12.4751C15.3166 12.1895 14.7335 11.7116 14.3233 11.1009C13.913 10.4902 13.6939 9.77374 13.6931 9.0408Z" fill="white"/>
<path d="M11.5342 2.72498C12.1755 1.96446 12.4914 0.986933 12.4149 0C11.4352 0.101657 10.5302 0.56424 9.88026 1.29558C9.56248 1.65286 9.3191 2.06851 9.16402 2.51877C9.00895 2.96903 8.94522 3.44507 8.97648 3.91967C9.46653 3.92465 9.95132 3.81972 10.3944 3.61278C10.8374 3.40584 11.2271 3.10229 11.5342 2.72498Z" fill="white"/>
</svg>
