<svg width="18" height="18" viewBox="0 0 18 18" fill="none" xmlns="http://www.w3.org/2000/svg" >
<path d="M1.98071 17.177C1.79635 16.975 1.6875 16.6616 1.6875 16.2551V16.1595C1.6875 16.5657 1.79635 16.8794 1.98071 17.0814L2.02779 17.1281L1.98071 17.177" fill="url(#paint0_linear_13943_29764)"/>
<path d="M1.6875 1.84106V1.74521C1.6875 1.7439 1.6875 1.74285 1.6875 1.7416C1.6875 1.74134 1.6875 1.74108 1.6875 1.74082C1.6875 1.70466 1.68845 1.6693 1.69022 1.63499C1.69022 1.63446 1.69022 1.63394 1.69022 1.63341C1.69022 1.63295 1.69022 1.63243 1.69041 1.6319C1.69041 1.63085 1.69041 1.62987 1.69041 1.62882C1.69041 1.62856 1.69041 1.6283 1.69041 1.62803C1.70948 1.27821 1.8144 1.00528 1.98071 0.82308L2.02703 0.871237C1.8144 1.0699 1.6875 1.40122 1.6875 1.84106V1.84106ZM2.02576 0.777219L2.02753 0.775383C2.02703 0.77617 2.02627 0.776694 2.02576 0.777219Z" fill="url(#paint1_linear_13943_29764)"/>
<path d="M2.02779 17.1279L1.98071 17.0813C1.79635 16.8793 1.6875 16.5656 1.6875 16.1594V16.255V1.745C1.6875 1.74369 1.6875 1.7427 1.6875 1.74165C1.6875 1.7429 1.6875 1.74395 1.6875 1.74526V1.84111C1.6875 1.40127 1.8144 1.06995 2.02703 0.871289L9.87674 8.99987L2.02779 17.1279ZM1.6875 1.74087C1.6875 1.70472 1.68845 1.66961 1.69022 1.63504C1.68845 1.66935 1.6875 1.70472 1.6875 1.74087ZM1.69022 1.63346C1.69022 1.63301 1.69022 1.63248 1.69041 1.63196C1.69022 1.63248 1.69022 1.63301 1.69022 1.63346ZM1.69041 1.62887C1.69041 1.62861 1.69041 1.62835 1.69041 1.62808C1.69041 1.62835 1.69041 1.62861 1.69041 1.62887Z" fill="url(#paint2_linear_13943_29764)"/>
<path d="M12.4912 11.8064L12.5509 11.7713L15.6508 9.94731C15.9464 9.77332 16.1433 9.56238 16.2416 9.33918C16.1436 9.56238 15.9466 9.77358 15.6508 9.94757L12.5509 11.7716L12.4912 11.8064V11.8064ZM12.4919 11.7103L9.875 8.99986L12.4917 6.28989L15.6508 8.14845C16.052 8.38451 16.2772 8.68874 16.3149 8.99959C16.3149 8.99986 16.3149 9.00038 16.3149 9.00084C16.2772 9.31097 16.052 9.61546 15.6508 9.85146L12.4919 11.7103" fill="url(#paint3_linear_13943_29764)"/>
<path d="M2.58702 17.4375C2.36774 17.4375 2.17641 17.3637 2.0272 17.2243L2.02746 17.224C2.17666 17.3634 2.36825 17.4375 2.58753 17.4375C2.60653 17.4375 2.62586 17.437 2.64543 17.436C2.6256 17.437 2.60603 17.4375 2.58702 17.4375V17.4375ZM2.58727 17.3414C2.368 17.3416 2.17666 17.2676 2.02746 17.1282V17.128L9.87641 8.9999L12.4933 11.7103L3.29705 17.1213C3.04261 17.2707 2.80154 17.3414 2.58727 17.3414V17.3414ZM2.02524 17.2225C2.01137 17.2094 1.99774 17.1956 1.98438 17.1812L2.02524 17.2225Z" fill="url(#paint4_linear_13943_29764)"/>
<path d="M9.87315 9L2.02344 0.871415C2.17264 0.732259 2.36372 0.658449 2.58275 0.658449C2.79759 0.658449 3.03885 0.729438 3.29379 0.879092L12.4898 6.29003L9.87315 9V9ZM12.549 6.22882L3.29379 0.783302C3.03885 0.633583 2.79759 0.562595 2.58275 0.562595C2.58173 0.562595 2.58104 0.562595 2.58002 0.562595C2.58129 0.562595 2.58224 0.562595 2.58376 0.562595C2.79809 0.562595 3.0391 0.63332 3.29379 0.783039L12.549 6.22882V6.22882Z" fill="url(#paint5_linear_13943_29764)"/>
<path d="M2.58859 17.4375C2.36931 17.4375 2.17772 17.3634 2.02852 17.224L2.02827 17.2243C2.02776 17.2237 2.027 17.223 2.0263 17.2225L1.98544 17.1812C1.98417 17.1799 1.98297 17.1784 1.98145 17.1769L2.02852 17.1282C2.17772 17.2676 2.36906 17.3416 2.58834 17.3414C2.80261 17.3414 3.04368 17.2707 3.29812 17.1213L12.4944 11.7103L12.5533 11.7713L12.4936 11.8064L3.29812 17.2171C3.06623 17.3532 2.84569 17.4242 2.6465 17.436C2.62692 17.437 2.6076 17.4375 2.58859 17.4375" fill="url(#paint6_linear_13943_29764)"/>
<path d="M12.5521 11.7712L12.4932 11.7102L15.652 9.8514C16.0532 9.6154 16.2784 9.31091 16.3161 9.00078C16.3161 9.11461 16.2916 9.22838 16.2428 9.33912C16.1446 9.56232 15.9476 9.77326 15.652 9.94725L12.5521 11.7712Z" fill="url(#paint7_linear_13943_29764)"/>
<path d="M16.3163 8.99976C16.2787 8.6889 16.0535 8.38468 15.6523 8.14862L12.4932 6.29005L12.5521 6.22904H12.5523L15.6523 8.05302C16.0946 8.31342 16.3161 8.65656 16.3163 8.99976Z" fill="url(#paint8_linear_13943_29764)"/>
<path d="M12.4942 6.29004L3.29812 0.879096C3.04317 0.729442 2.80191 0.658453 2.58707 0.658453C2.36805 0.658453 2.17696 0.732263 2.02776 0.871419L1.98145 0.823262C1.99608 0.807384 2.01091 0.791966 2.02649 0.777401C2.027 0.776876 2.02776 0.776352 2.02827 0.775827C2.17627 0.637721 2.36532 0.563911 2.58238 0.562599C2.58289 0.562599 2.58358 0.562599 2.58434 0.562599C2.58536 0.562599 2.58605 0.562599 2.58707 0.562599C2.80191 0.562599 3.04317 0.633586 3.29812 0.783305L12.5533 6.22883L12.5531 6.22902L12.4942 6.29004Z" fill="url(#paint9_linear_13943_29764)"/>
<defs>
<linearGradient id="paint0_linear_13943_29764" x1="9.18072" y1="1.59214" x2="-1.82329" y2="12.2184" gradientUnits="userSpaceOnUse">
<stop stop-color="#008DE0"/>
<stop offset="0.00657445" stop-color="#008DE0"/>
<stop offset="0.2601" stop-color="#00A7E0"/>
<stop offset="0.5122" stop-color="#00B8E0"/>
<stop offset="0.7604" stop-color="#00C4E0"/>
<stop offset="1" stop-color="#00C7E0"/>
</linearGradient>
<linearGradient id="paint1_linear_13943_29764" x1="9.1807" y1="1.59188" x2="-1.82336" y2="12.2181" gradientUnits="userSpaceOnUse">
<stop stop-color="#40B8FF"/>
<stop offset="0.00657445" stop-color="#40B9FF"/>
<stop offset="0.2601" stop-color="#40CEFF"/>
<stop offset="0.5122" stop-color="#40DDFF"/>
<stop offset="0.7604" stop-color="#40E7FF"/>
<stop offset="1" stop-color="#40EAFF"/>
</linearGradient>
<linearGradient id="paint2_linear_13943_29764" x1="9.18071" y1="1.59193" x2="-1.82335" y2="12.2182" gradientUnits="userSpaceOnUse">
<stop stop-color="#00A0FF"/>
<stop offset="0.00657445" stop-color="#00A1FF"/>
<stop offset="0.2601" stop-color="#00BEFF"/>
<stop offset="0.5122" stop-color="#00D2FF"/>
<stop offset="0.7604" stop-color="#00DFFF"/>
<stop offset="1" stop-color="#00E3FF"/>
</linearGradient>
<linearGradient id="paint3_linear_13943_29764" x1="16.8036" y1="9.00025" x2="1.47332" y2="9.00025" gradientUnits="userSpaceOnUse">
<stop stop-color="#FFE000"/>
<stop offset="0.4087" stop-color="#FFBD00"/>
<stop offset="0.7754" stop-color="#FFA500"/>
<stop offset="1" stop-color="#FF9C00"/>
</linearGradient>
<linearGradient id="paint4_linear_13943_29764" x1="11.0983" y1="10.5058" x2="-3.82401" y2="24.9158" gradientUnits="userSpaceOnUse">
<stop stop-color="#FF3A44"/>
<stop offset="1" stop-color="#C31162"/>
</linearGradient>
<linearGradient id="paint5_linear_13943_29764" x1="-0.0111225" y1="-4.00665" x2="6.65229" y2="2.428" gradientUnits="userSpaceOnUse">
<stop stop-color="#32A071"/>
<stop offset="0.0685" stop-color="#2DA771"/>
<stop offset="0.4762" stop-color="#15CF74"/>
<stop offset="0.8009" stop-color="#06E775"/>
<stop offset="1" stop-color="#00F076"/>
</linearGradient>
<linearGradient id="paint6_linear_13943_29764" x1="11.0994" y1="10.5058" x2="-3.82294" y2="24.9158" gradientUnits="userSpaceOnUse">
<stop stop-color="#CC2E36"/>
<stop offset="1" stop-color="#9C0E4E"/>
</linearGradient>
<linearGradient id="paint7_linear_13943_29764" x1="16.8049" y1="9.00019" x2="1.47456" y2="9.00019" gradientUnits="userSpaceOnUse">
<stop stop-color="#E0C500"/>
<stop offset="0.4087" stop-color="#E0A600"/>
<stop offset="0.7754" stop-color="#E09100"/>
<stop offset="1" stop-color="#E08900"/>
</linearGradient>
<linearGradient id="paint8_linear_13943_29764" x1="16.8051" y1="9.00041" x2="1.47483" y2="9.00041" gradientUnits="userSpaceOnUse">
<stop stop-color="#FFE840"/>
<stop offset="0.4087" stop-color="#FFCE40"/>
<stop offset="0.7754" stop-color="#FFBC40"/>
<stop offset="1" stop-color="#FFB540"/>
</linearGradient>
<linearGradient id="paint9_linear_13943_29764" x1="-0.00680164" y1="-4.00665" x2="6.65661" y2="2.428" gradientUnits="userSpaceOnUse">
<stop stop-color="#65B895"/>
<stop offset="0.0685" stop-color="#62BD95"/>
<stop offset="0.4762" stop-color="#50DB97"/>
<stop offset="0.8009" stop-color="#44ED98"/>
<stop offset="1" stop-color="#40F498"/>
</linearGradient>
</defs>
</svg>
