<?xml version="1.0" encoding="UTF-8"?>
<svg width="130px" height="35px" viewBox="0 0 130 35" version="1.1" xmlns="http://www.w3.org/2000/svg" xmlns:xlink="http://www.w3.org/1999/xlink">
    <!-- Generator: Sketch 48.2 (47327) - http://www.bohemiancoding.com/sketch -->
    <title>Logo-Orange</title>
    <desc>Created with Sketch.</desc>
    <defs></defs>
    <g id="Page-1" stroke="none" stroke-width="1" fill="none" fill-rule="evenodd">
        <g id="Logo-Orange" fill="#F58024">
            <g id="Group">
                <g id="Group-2">
                    <path d="M29.2396154,20.3426835 L29.0894441,28.6160159 L34.1584406,28.6160159 L34.1584406,20.3426835 C34.1584406,18.4518349 35.6957526,16.9137046 37.5874196,16.9137046 L39.9713374,16.9137046 L39.9713374,12.068942 L37.5874196,11.9948793 C32.9763022,11.9948793 29.2396154,15.7315661 29.2396154,20.3426835 Z" id="Fill-49"></path>
                    <path d="M91.4551238,11.9948793 C86.8444156,11.9948793 83.106092,15.7315661 83.106092,20.3426835 C83.106092,24.9533917 86.8444156,28.6904877 91.4551238,28.6904877 C96.0646044,28.6904877 99.8021096,24.9533917 99.8021096,20.3426835 C99.8021096,15.7315661 96.0646044,11.9948793 91.4551238,11.9948793 Z M94.4356348,20.3426835 C94.4356348,21.9863838 93.0980057,23.3236037 91.4551238,23.3236037 C89.8101959,23.3236037 88.4733852,21.9863838 88.4733852,20.3426835 C88.4733852,18.698574 89.8101959,17.3609449 91.4551238,17.3609449 C93.0980057,17.3609449 94.4356348,18.698574 94.4356348,20.3426835 Z" id="Fill-51"></path>
                    <path d="M56.1689664,24.0445895 C54.2924393,24.0445895 52.7661754,22.5183256 52.7661754,20.6417985 C52.7661754,18.7652714 54.2924393,17.2385983 56.1689664,17.2385983 C58.0450844,17.2385983 59.5717574,18.7652714 59.5717574,20.6417985 C59.5717574,22.5183256 58.0450844,24.0445895 56.1689664,24.0445895 Z M47.8907238,20.4016063 L47.8841769,35.0717439 L52.4977493,35.0717439 L52.4977493,28.068525 C53.6045976,28.6168342 54.850569,28.9261789 56.1689664,28.9261789 C60.7440754,28.9261789 64.4529376,25.2164983 64.4529376,20.6417985 C64.4529376,16.0666895 60.7440754,12.3565998 56.1689664,12.3565998 C51.6740579,12.3565998 48.0175715,15.9377959 47.8907238,20.4016063 Z" id="Fill-53"></path>
                    <path d="M73.5389134,24.0494998 C71.6627955,24.0494998 70.1357132,22.5224175 70.1357132,20.6458904 C70.1357132,18.7697724 71.6627955,17.2430993 73.5389134,17.2430993 C75.4146222,17.2430993 76.9412953,18.7697724 76.9412953,20.6458904 C76.9412953,22.5224175 75.4146222,24.0494998 73.5389134,24.0494998 Z M69.8672872,13.2191639 L69.8672872,6.21594499 L65.2537147,6.21594499 L65.2537147,20.8864917 C65.3879277,25.349893 69.0435957,28.9310891 73.5389134,28.9310891 C78.1136132,28.9310891 81.8232938,25.2209994 81.8232938,20.6458904 C81.8232938,16.0715997 78.1136132,12.36151 73.5389134,12.36151 C72.2201068,12.36151 70.9741354,12.6712638 69.8672872,13.2191639 Z" id="Fill-54"></path>
                    <polygon id="Fill-55" points="41.3101941 12.0505286 46.5543223 12.0386622 46.5543223 28.6217445 41.3101941 28.6217445"></polygon>
                    <polygon id="Fill-45" points="117.974061 0.00736534855 117.974061 11.7943781 129.568347 11.7943781 129.568347 0 125.201105 0 125.201105 1.57904889 127.989708 1.57904889 127.989708 10.2153293 119.55311 10.2153293 119.55311 1.58641424 122.434598 1.58641424 122.434598 0.00736534855"></polygon>
                    <path d="M122.566765,8.81632221 C122.11707,8.66287745 121.700109,8.43577921 121.315884,8.13584585 L121.938665,7.1910353 C122.268469,7.43695611 122.605229,7.62354494 122.947308,7.74998342 C123.288569,7.87683109 123.617146,7.94025492 123.932628,7.94025492 C124.231743,7.94025492 124.46457,7.88092295 124.629881,7.76144063 C124.794783,7.64236749 124.877439,7.48319413 124.877439,7.28310216 L124.877439,7.26018774 C124.877439,7.14479728 124.840612,7.04536507 124.768186,6.96066357 C124.694942,6.87596206 124.5951,6.80108101 124.468253,6.73561125 C124.341814,6.67055067 124.195326,6.61285544 124.030424,6.56293474 C123.865112,6.51301405 123.694073,6.46104742 123.517304,6.40703487 C123.294298,6.34565696 123.069655,6.27282185 122.843375,6.18812034 C122.616277,6.10382802 122.412911,5.99416616 122.232051,5.85995314 C122.0516,5.72533094 121.903884,5.55838304 121.788084,5.35829107 C121.673103,5.15860829 121.615817,4.91268748 121.615817,4.62052866 L121.615817,4.59761424 C121.615817,4.30545541 121.671057,4.04603147 121.782765,3.8197516 C121.893654,3.59306253 122.047508,3.39869917 122.243917,3.23747987 C122.439508,3.07626058 122.670698,2.95309558 122.935033,2.86839407 C123.200594,2.78410175 123.482933,2.7415464 123.782457,2.7415464 C124.166683,2.7415464 124.554591,2.8033335 124.946591,2.9260893 C125.338591,3.0492543 125.695811,3.21824813 126.018659,3.43347998 L125.465439,4.42452855 C125.17328,4.24816937 124.877439,4.10781856 124.577915,4.00388531 C124.277981,3.90036124 124.001371,3.84839462 123.748085,3.84839462 C123.478841,3.84839462 123.269747,3.90608985 123.119576,4.02107112 C122.969813,4.13646158 122.894932,4.282541 122.894932,4.45930936 L122.894932,4.48222378 C122.894932,4.59024889 122.932987,4.68395249 123.010323,4.76456214 C123.086841,4.84558097 123.188728,4.91841609 123.315576,4.98347667 C123.442423,5.04894643 123.588503,5.10868759 123.753405,5.16229096 C123.919125,5.21589433 124.089756,5.27358956 124.266524,5.33496747 C124.48953,5.40452909 124.712128,5.48513874 124.935134,5.5772056 C125.15814,5.66968164 125.359869,5.78302617 125.54032,5.91723919 C125.720771,6.05186139 125.868487,6.21512662 125.983878,6.40703487 C126.099268,6.5993523 126.156554,6.8338159 126.156554,7.11042565 L126.156554,7.13334007 C126.156554,7.45577866 126.099268,7.73648028 125.983878,7.97462655 C125.868487,8.21318201 125.709314,8.41081886 125.505539,8.56835548 C125.302174,8.7258921 125.061982,8.84496524 124.785372,8.92557488 C124.508762,9.00659372 124.212511,9.04669395 123.897847,9.04669395 C123.459609,9.04669395 123.016051,8.96976698 122.566765,8.81632221 Z" id="Fill-46"></path>
                    <path d="M22.2323046,23.7716624 C20.3410468,23.7716624 18.8033257,22.2335322 18.8033257,20.3426835 C18.8033257,18.4518349 20.3410468,16.9137046 22.2323046,16.9137046 C23.2945515,16.9137046 24.2328151,17.4100472 24.8629616,18.1707241 L28.6688009,15.0269478 C27.1368084,13.1745626 24.8228614,11.9948793 22.2323046,11.9948793 C17.620778,11.9948793 13.8828636,15.7315661 13.8828636,20.3426835 C13.8828636,24.9533917 17.620778,28.6904877 22.2323046,28.6904877 C24.8064939,28.6904877 27.1065286,27.5243075 28.6381119,25.6923817 L24.850686,22.5289645 C24.2209487,23.282276 23.2875954,23.7716624 22.2323046,23.7716624 Z" id="Fill-48"></path>
                    <path d="M13.1786545,25.4914713 C12.8116146,26.1936346 12.3164995,26.7902278 11.6957643,27.2796143 C11.0738015,27.7690008 10.3507698,28.1409509 9.52544161,28.3954646 C8.69929501,28.6499783 7.81749911,28.7772352 6.87923555,28.7772352 C5.59520978,28.7772352 4.3672425,28.6241996 3.1957429,28.3189468 C2.02260655,28.0132848 0.958313684,27.5648169 0,26.9731339 L2.01892387,23.1513364 C2.30330817,23.3555203 2.63965908,23.544155 3.02715825,23.7172407 C3.41424824,23.8907356 3.81729648,24.043362 4.23589379,24.1759382 C4.65326354,24.3085145 5.07063329,24.4104018 5.48841223,24.4816002 C5.90619116,24.5532078 6.2887801,24.5883978 6.63576986,24.5883978 C7.79663063,24.5883978 8.37808398,24.2324059 8.37808398,23.5187855 C8.37808398,23.1726141 8.20008805,22.9066432 7.84286865,22.7233278 C7.48605843,22.5400125 7.04290996,22.3669268 6.51383242,22.2036616 C5.98270895,22.0408055 5.40657502,21.8619912 4.78543063,21.6684462 C4.16387705,21.4744921 3.58733393,21.2048385 3.05784721,20.8578487 C2.5279513,20.5112682 2.08357527,20.05789 1.72717423,19.4973052 C1.36995483,18.9367203 1.19195891,18.2083692 1.19195891,17.310615 C1.19195891,16.5159758 1.36054355,15.7978543 1.69730365,15.1558414 C2.03324539,14.5130101 2.4927613,13.9626549 3.0725779,13.5043666 C3.65280369,13.045669 4.35251181,12.6888588 5.16679201,12.4343451 C5.98270895,12.179013 6.85959462,12.051347 7.79663063,12.051347 C8.91820954,12.051347 9.88675287,12.1491424 10.7026698,12.3418691 C11.5173592,12.5362324 12.3332761,12.8161157 13.1479655,13.1835647 L11.3139937,16.9137046 C10.8446574,16.6690113 10.3454504,16.4652367 9.8155545,16.3023806 C9.28443103,16.1391154 8.78604245,16.056869 8.31670607,16.056869 C7.74589156,16.056869 7.29701448,16.1640758 6.97171159,16.3780801 C6.64559032,16.5929027 6.48273428,16.872786 6.48273428,17.2193665 C6.48273428,17.5057968 6.66113939,17.7349409 7.01713124,17.9076174 C7.37394146,18.0807031 7.82322772,18.2439684 8.36294409,18.3965947 C8.90266047,18.5496303 9.48370463,18.7173966 10.1060766,18.9007119 C10.7276302,19.0848457 11.3086743,19.3446788 11.8487999,19.6810297 C12.3885163,20.0177898 12.8369842,20.4556189 13.1946127,20.9961536 C13.5506046,21.5362792 13.7286005,22.2343505 13.7286005,23.0903677 C13.7286005,23.9873035 13.5456944,24.786853 13.1786545,25.4914713 Z" id="Fill-50"></path>
                    <path d="M46.7089946,6.73847555 C46.7089946,8.38217584 45.3717746,9.71980497 43.7284835,9.71980497 C42.0831465,9.71980497 40.7467449,8.38217584 40.7467449,6.73847555 C40.7467449,5.09436608 42.0831465,3.75673695 43.7284835,3.75673695 C45.3717746,3.75673695 46.7089946,5.09436608 46.7089946,6.73847555 Z" id="Fill-52"></path>
                    <polygon id="Fill-56" points="107.255433 16.3899465 104.026546 11.9801486 98.1927809 11.9801486 104.37149 20.3291804 98.3130816 28.6041495 104.015089 28.6041495 107.255433 24.2258589 110.495777 28.6041495 116.197785 28.6041495 110.139376 20.3291804 116.317676 11.9801486 110.48432 11.9801486"></polygon>
                </g>
            </g>
        </g>
    </g>
</svg>