<svg width="40" height="40" viewBox="0 0 40 40" fill="none"
	xmlns="http://www.w3.org/2000/svg" class="no-hover-fill">
	<rect width="40" height="40" rx="6" fill="#F2F2F2"/>
	<path fill-rule="evenodd" clip-rule="evenodd" d="M20.124 8C18.7826 8 17.3581 8.44279 16.3901 9.73222C15.789 10.533 15.3612 11.7058 15.1333 13.2626C14.0564 13.6229 13.3569 14.2705 13.0054 15.1764C12.6605 16.0655 12.6282 17.0307 12.925 18.0728C12.3791 18.9504 12.0756 19.7118 11.9939 20.3513C11.8645 21.3645 12.0537 22.6567 12.3178 23.5217C12.7494 24.9357 13.4914 26.2223 14.4713 27.1263C15.3949 27.9783 16.5274 28.4955 17.8166 28.4955H22.2223C24.0018 28.4955 25.5303 27.0233 26.4761 25.9413C27.5231 24.7435 28.1084 23.3373 28.1084 20.619C28.1084 19.1855 27.6083 18.068 26.631 17.2546C26.863 14.9767 26.5337 13.3974 25.7518 12.4693C25.1464 11.7507 24.5025 11.2705 23.8303 11.0114C23.6838 9.84003 23.156 9.01936 22.295 8.51722C21.6201 8.12358 20.9524 8 20.124 8Z" fill="#ACE0A2" stroke="#54894A" stroke-width="1.2"/>
	<path d="M19.9922 31.9034V18.6309" stroke="#54894A" stroke-width="1.2" stroke-linecap="round"/>
	<path d="M11 32C13.989 32 17.0751 32 20.2584 32C23.4417 32 26.3555 32 29 32" stroke="#54894A" stroke-width="1.2" stroke-linecap="round"/>
	<path d="M22.2147 19.582L19.9922 22.2259" stroke="#54894A" stroke-width="1.2" stroke-linecap="round"/>
	<path d="M17.4715 21.4902L20.0098 23.6153V26.6655L23.1133 22.9886" stroke="#54894A" stroke-width="1.2" stroke-linecap="round"/>
</svg>
