<svg width="14" height="7" viewBox="0 0 14 7" fill="none" xmlns="http://www.w3.org/2000/svg">
<path fill-rule="evenodd" clip-rule="evenodd" d="M0 0.875C0 0.642936 0.105357 0.420376 0.292893 0.256282C0.48043 0.0921874 0.734784 0 1 0H13C13.2652 0 13.5196 0.0921874 13.7071 0.256282C13.8946 0.420376 14 0.642936 14 0.875C14 1.10706 13.8946 1.32962 13.7071 1.49372C13.5196 1.65781 13.2652 1.75 13 1.75H1C0.734784 1.75 0.48043 1.65781 0.292893 1.49372C0.105357 1.32962 0 1.10706 0 0.875ZM0 6.125C0 5.89294 0.105357 5.67038 0.292893 5.50628C0.48043 5.34219 0.734784 5.25 1 5.25H13C13.2652 5.25 13.5196 5.34219 13.7071 5.50628C13.8946 5.67038 14 5.89294 14 6.125C14 6.35706 13.8946 6.57962 13.7071 6.74372C13.5196 6.90781 13.2652 7 13 7H1C0.734784 7 0.48043 6.90781 0.292893 6.74372C0.105357 6.57962 0 6.35706 0 6.125Z" fill="#007aff"/>
</svg>
