<svg width="32" height="32" viewBox="0 0 32 32" fill="none" xmlns="http://www.w3.org/2000/svg">
<path d="M15.9995 24.666C15.8749 24.666 15.7509 24.6313 15.6415 24.562L0.974855 15.2287C0.772188 15.1 0.654855 14.8713 0.666855 14.6313C0.679522 14.392 0.819522 14.1767 1.03486 14.0693L15.9995 4.66602L30.9642 14.0693C31.1789 14.1767 31.3195 14.3913 31.3322 14.6313C31.3449 14.8713 31.2269 15.0993 31.0242 15.2287L16.3575 24.562C16.2482 24.6313 16.1242 24.666 15.9995 24.666Z" fill="#C05621"/>
<path d="M26 25.3327H6V1.33268C6 0.964682 6.29867 0.666016 6.66667 0.666016H25.3333C25.7013 0.666016 26 0.964682 26 1.33268V25.3327Z" fill="#90CDF4"/>
<path d="M30.6664 31.3327C30.6104 31.3327 30.5537 31.3253 30.4984 31.3113L15.165 27.3113L15.333 22.666L31.333 14.666V30.666C31.333 30.8727 31.237 31.0673 31.0737 31.194C30.9564 31.2847 30.8124 31.3327 30.6664 31.3327Z" fill="#DD6B20"/>
<path d="M30.666 31.3327H1.33268C0.964016 31.3327 0.666016 31.034 0.666016 30.666V14.666L30.9854 30.0807C31.2527 30.2267 31.388 30.5353 31.312 30.8307C31.2367 31.126 30.9707 31.3327 30.666 31.3327Z" fill="#F58024"/>
<path d="M21.3333 6.66536H10.6667C10.2987 6.66536 10 6.36736 10 5.9987C10 5.63003 10.2987 5.33203 10.6667 5.33203H21.3333C21.7013 5.33203 22 5.63003 22 5.9987C22 6.36736 21.7013 6.66536 21.3333 6.66536Z" fill="white"/>
<path d="M21.3333 11.3333H10.6667C10.2987 11.3333 10 11.0353 10 10.6667C10 10.298 10.2987 10 10.6667 10H21.3333C21.7013 10 22 10.298 22 10.6667C22 11.0353 21.7013 11.3333 21.3333 11.3333Z" fill="white"/>
<path d="M16.6667 15.9993H10.6667C10.2987 15.9993 10 15.7013 10 15.3327C10 14.964 10.2987 14.666 10.6667 14.666H16.6667C17.0347 14.666 17.3333 14.964 17.3333 15.3327C17.3333 15.7013 17.0347 15.9993 16.6667 15.9993Z" fill="white"/>
</svg>
