<svg width="28" height="37" viewBox="0 0 28 37" fill="none"
	xmlns="http://www.w3.org/2000/svg" class="no-hover-fill">
	<path d="M9.63066 9.62845L5.31641 1L10.7092 3.15711L13.9449 1L17.1806 3.15711L22.5734 1L18.2592 9.62845" fill="#FFD4B0"/>
	<path d="M9.63066 9.62845L5.31641 1L10.7092 3.15711L13.9449 1L17.1806 3.15711L22.5734 1L18.2592 9.62845" stroke="#EC8702" stroke-width="2" stroke-linecap="round" stroke-linejoin="round"/>
	<path d="M18.257 9.62891H9.62851C9.62851 9.62891 1 19.0418 1 26.1014C1 30.8078 4.23569 35.5143 13.9428 35.5143C23.6498 35.5143 26.8855 30.8078 26.8855 26.1014C26.8855 19.0418 18.257 9.62891 18.257 9.62891Z" fill="#FFD4B0" stroke="#EC8702" stroke-width="2"/>
	<path d="M16.6367 15.3809C20.4117 18.257 22.3531 23.53 21.4903 27.3648" stroke="#EC8702" stroke-width="2" stroke-linecap="round" stroke-linejoin="round"/>
</svg>
