<svg fill="none" xmlns="http://www.w3.org/2000/svg" viewBox="0 0 19 18" width="18px" height="18px" alt="sebi-logo"><path fill-rule="evenodd" clip-rule="evenodd" d="M12.635 15.657h-1.393v-2.59h1.354c.378 0 .72.168.912.363.117.116.197.214.266.372.288.646 0 1.401-.625 1.715-.119.06-.346.14-.514.14zm-.215-4.31h-1.178v-2.11h1.103c.305 0 .653.135.839.265.694.475.482 1.399-.32 1.726-.108.043-.303.119-.444.119zM.704 7.594c0 1.103.688 1.412 1.624 1.412h1.778v3.578c.63 0 3.338.04 3.783-.048a.992.992 0 00.409-.188c.218-.203.314-.474.314-.887v-1.276H6.929v.716H6V9.277h3.558v6.36H2.966c-.06 0-.504-.473-.575-.544-.208-.208-.484-.506-.705-.69-.056-.046-.093-.089-.147-.143-.093-.093-.768-.802-.854-.826 0 .097.019.106.019.212v3.463h12.22c.558 0 1.114-.16 1.536-.437a2.51 2.51 0 00.19-.137c.353-.287.52-.469.762-.902.322-.566.335-.81.335-1.425 0-.497-.23-1.07-.532-1.46-.216-.277-.528-.49-.841-.649a1.39 1.39 0 00-.174-.075c-.084-.033-.127-.02-.136-.117.13-.03.355-.2.457-.28.415-.322.685-.95.685-1.537 0-.56-.03-.833-.309-1.317-.331-.576-.852-.989-1.486-1.22-.288-.104-.737-.23-1.125-.23H6.001V5.893h.928v.696h1.683V5.217c0-.337-.275-.616-.487-.753-.242-.153-.608-.253-1.001-.253H4.048v3.093h-1.39v-3.77c0-.078.916-.928 1.096-1.107.056-.059.335-.364.391-.364h10.847c.065 0 .707.677.76.732.055.054.73.696.73.759V5.68c0 .08-.246.257-.296.305L14.84 7.343h2.513c.326.002.24-.056.595-.41.047-.048.238-.204.238-.267V.46c0-.044-.016-.057-.059-.057H.704v7.192z" fill="#2E3092"></path><path fill-rule="evenodd" clip-rule="evenodd" d="M16.468 15.754c0 .093-.389.402-.495.51-.169.167-.783.757-.84.844l2.884.002c.071 0 .134.015.134-.06V9.933h-1.683v5.82zM17.3 7.938a.845.845 0 11-.003 1.69.845.845 0 01.003-1.69z" fill="#2E3092"></path></svg>