<svg width="20" height="18" viewBox="0 0 20 18" fill="none" xmlns="http://www.w3.org/2000/svg">
<path d="M28 19.8333C28 20.4779 27.4779 21 26.8333 21H1.16667C0.522083 21 0 20.4779 0 19.8333V10.5H28V19.8333Z" fill="#E6E6E6"/>
<path d="M28 10.5H0V1.16667C0 0.522083 0.522083 0 1.16667 0H26.8333C27.4779 0 28 0.522083 28 1.16667V10.5Z" fill="#EA2C3F"/>
<path d="M4.66634 5.83203C4.66634 4.31128 5.64342 3.02911 6.99967 2.54611C6.63276 2.41661 6.24426 2.33203 5.83301 2.33203C3.90042 2.33203 2.33301 3.90003 2.33301 5.83203C2.33301 7.76461 3.90042 9.33203 5.83301 9.33203C6.24426 9.33203 6.63276 9.24745 6.99967 9.11795C5.64342 8.63495 4.66634 7.35278 4.66634 5.83203Z" fill="white"/>
<path d="M11.0833 3.4987C11.4055 3.4987 11.6667 3.23753 11.6667 2.91536C11.6667 2.5932 11.4055 2.33203 11.0833 2.33203C10.7612 2.33203 10.5 2.5932 10.5 2.91536C10.5 3.23753 10.7612 3.4987 11.0833 3.4987Z" fill="white"/>
<path d="M11.0833 8.16667C11.4055 8.16667 11.6667 7.9055 11.6667 7.58333C11.6667 7.26117 11.4055 7 11.0833 7C10.7612 7 10.5 7.26117 10.5 7.58333C10.5 7.9055 10.7612 8.16667 11.0833 8.16667Z" fill="white"/>
<path d="M8.75033 6.99987C9.07249 6.99987 9.33366 6.73844 9.33366 6.41595C9.33366 6.09346 9.07249 5.83203 8.75033 5.83203C8.42816 5.83203 8.16699 6.09346 8.16699 6.41595C8.16699 6.73844 8.42816 6.99987 8.75033 6.99987Z" fill="white"/>
<path d="M13.4163 4.66783C13.7385 4.66783 13.9997 4.40641 13.9997 4.08392C13.9997 3.76143 13.7385 3.5 13.4163 3.5C13.0942 3.5 12.833 3.76143 12.833 4.08392C12.833 4.40641 13.0942 4.66783 13.4163 4.66783Z" fill="white"/>
<path d="M13.4146 6.9987C13.7374 6.9987 13.9991 6.73753 13.9991 6.41536C13.9991 6.0932 13.7374 5.83203 13.4146 5.83203C13.0918 5.83203 12.8301 6.0932 12.8301 6.41536C12.8301 6.73753 13.0918 6.9987 13.4146 6.9987Z" fill="white"/>
<path d="M8.74896 4.66667C9.07144 4.66667 9.33287 4.4055 9.33287 4.08333C9.33287 3.76117 9.07144 3.5 8.74896 3.5C8.42647 3.5 8.16504 3.76117 8.16504 4.08333C8.16504 4.4055 8.42647 4.66667 8.74896 4.66667Z" fill="white"/>
</svg>
