<svg width="13" height="10" viewBox="0 0 13 10" fill="none" xmlns="http://www.w3.org/2000/svg">
<path fill-rule="evenodd" clip-rule="evenodd" d="M0 1C0 0.447715 0.447715 0 1 0H12C12.5523 0 13 0.447715 13 1C13 1.55228 12.5523 2 12 2H1C0.447715 2 0 1.55228 0 1ZM1 5C1 4.44772 1.44772 4 2 4H11C11.5523 4 12 4.44772 12 5C12 5.55228 11.5523 6 11 6H2C1.44771 6 1 5.55228 1 5ZM4 8C3.44772 8 3 8.44771 3 9C3 9.55229 3.44772 10 4 10H9C9.55228 10 10 9.55229 10 9C10 8.44771 9.55229 8 9 8H4Z" fill="#1971E4"/>
</svg>
