<svg width="20" height="20" viewBox="0 0 20 20" fill="none" xmlns="http://www.w3.org/2000/svg">
<path d="M27 0.666667C27 0.0220833 26.4779 -0.5 25.8333 -0.5H10.6667V11.1667H-1V19.3333C-1 19.9779 -0.477917 20.5 0.166667 20.5H25.8333C26.4779 20.5 27 19.9779 27 19.3333V0.666667Z" fill="#B41F30"/>
<path d="M27.0003 1.83398H10.667V4.16732H27.0003V1.83398Z" fill="white"/>
<path d="M27.0003 6.5H10.667V8.83333H27.0003V6.5Z" fill="white"/>
<path d="M-1 11.166V13.4993H27V11.166H10.6667H-1Z" fill="white"/>
<path d="M27 15.834H-1V18.1673H27V15.834Z" fill="white"/>
<path d="M10.6667 11.1667H-1V0.666667C-1 0.0220833 -0.477917 -0.5 0.166667 -0.5H10.6667V11.1667Z" fill="#00256A"/>
<path d="M4.8335 4.12109L4.46425 4.91909H3.58691L4.22858 5.58409L3.99175 6.54543L4.8335 6.06826L5.67525 6.54543L5.43841 5.58409L6.08008 4.91909H5.20158L4.8335 4.12109Z" fill="white"/>
<path d="M1.98038 1.26562L1.61171 2.06362H0.734375L1.37546 2.72862L1.13863 3.68996L1.98038 3.21279L2.82271 3.68996L2.58529 2.72862L3.22696 2.06362H2.34846L1.98038 1.26562Z" fill="white"/>
<path d="M7.68897 1.26562L8.05763 2.06362H8.93497L8.29388 2.72862L8.53072 3.68996L7.68897 3.21279L6.84663 3.68996L7.08405 2.72862L6.44238 2.06362H7.32088L7.68897 1.26562Z" fill="white"/>
<path d="M1.98038 9.4009L1.61171 8.6029H0.734375L1.37546 7.9379L1.13863 6.97656L1.98038 7.45373L2.82271 6.97656L2.58529 7.9379L3.22696 8.6029H2.34846L1.98038 9.4009Z" fill="white"/>
<path d="M7.68897 9.4009L8.05763 8.6029H8.93497L8.29388 7.9379L8.53072 6.97656L7.68897 7.45373L6.84663 6.97656L7.08405 7.9379L6.44238 8.6029H7.32088L7.68897 9.4009Z" fill="white"/>
</svg>
