<svg width="16" height="16" viewBox="0 0 16 16" fill="none" xmlns="http://www.w3.org/2000/svg">
<path fill-rule="evenodd" clip-rule="evenodd" d="M11.7675 10.1656C11.6175 10.3156 11.414 10.3998 11.2019 10.3998C10.9898 10.3998 10.7863 10.3156 10.6363 10.1656L8.00189 7.53119L5.36749 10.1656C5.21661 10.3113 5.01452 10.3919 4.80477 10.3901C4.59501 10.3883 4.39436 10.3042 4.24603 10.1558C4.09771 10.0075 4.01357 9.80687 4.01175 9.59711C4.00993 9.38735 4.09056 9.18527 4.23629 9.03439L7.43629 5.83439C7.58631 5.68441 7.78976 5.60016 8.00189 5.60016C8.21402 5.60016 8.41747 5.68441 8.56749 5.83439L11.7675 9.03439C11.9175 9.18441 12.0017 9.38786 12.0017 9.59999C12.0017 9.81212 11.9175 10.0156 11.7675 10.1656Z" fill="white"/>
</svg>
