<svg width="40" height="40" viewBox="0 0 40 40" fill="none"
	xmlns="http://www.w3.org/2000/svg" class="no-hover-fill">
	<rect width="40" height="40" rx="6" fill="#EAFFF2"/>
	<path fill-rule="evenodd" clip-rule="evenodd" d="M19.6359 32.3372C21.3617 32.3372 23.059 31.8966 24.567 31.0573C26.0749 30.218 27.3438 29.0076 28.2532 27.5408C29.1626 26.074 29.6826 24.3993 29.7639 22.6755C29.8452 20.9515 29.4851 19.2354 28.7177 17.6895C27.9503 16.1437 26.8011 14.8193 25.3787 13.8418C23.9564 12.8643 22.3081 12.266 20.59 12.1036C18.8718 11.9412 17.1406 12.22 15.5603 12.9138C13.9801 13.6075 12.603 14.6931 11.5596 16.0677L19.6359 22.1979V32.3372Z" fill="#C8EAAD" stroke="#5B954F" stroke-width="1.5"/>
	<path fill-rule="evenodd" clip-rule="evenodd" d="M19.6354 32.3372C17.7477 32.3372 15.8975 31.8102 14.2932 30.8156C12.6888 29.821 11.3939 28.3983 10.5543 26.7077C9.71465 25.0169 9.36368 23.1255 9.54086 21.2462C9.71805 19.3668 10.4163 17.5743 11.5571 16.0703L19.6354 22.1979V32.3372Z" fill="#ABD48A" stroke="#5B954F" stroke-width="1.5"/>
	<path d="M15.0273 25.2184L19.6063 17.5613H23.8145L29.0399 9.95898" stroke="#336B29" stroke-width="1.5" stroke-linecap="square"/>
	<path d="M26.4185 9.59766H29.6729L29.9984 12.5267" stroke="#336B29" stroke-width="1.5" stroke-linecap="round"/>
</svg>
