<svg width="30" height="30" viewBox="0 0 24 24" fill="none"
	xmlns="http://www.w3.org/2000/svg" class="no-hover-fill">
	<path d="M27 0.666667C27 0.0220833 26.4779 -0.5 25.8333 -0.5H10.6667V11.1667H-1V19.3333C-1 19.9779 -0.477917 20.5 0.166667 20.5H25.8333C26.4779 20.5 27 19.9779 27 19.3333V0.666667Z" fill="#B41F30"/>
	<path d="M26.9998 1.83398H10.6665V4.16732H26.9998V1.83398Z" fill="white"/>
	<path d="M26.9998 6.5H10.6665V8.83333H26.9998V6.5Z" fill="white"/>
	<path d="M-1 11.166V13.4993H27V11.166H10.6667H-1Z" fill="white"/>
	<path d="M27 15.834H-1V18.1673H27V15.834Z" fill="white"/>
	<path d="M10.6667 11.1667H-1V0.666667C-1 0.0220833 -0.477917 -0.5 0.166667 -0.5H10.6667V11.1667Z" fill="#00256A"/>
	<path d="M4.8335 4.12109L4.46425 4.91909H3.58691L4.22858 5.58409L3.99175 6.54543L4.8335 6.06826L5.67525 6.54543L5.43841 5.58409L6.08008 4.91909H5.20158L4.8335 4.12109Z" fill="white"/>
	<path d="M1.97989 1.26562L1.61122 2.06362H0.733887L1.37497 2.72862L1.13814 3.68996L1.97989 3.21279L2.82222 3.68996L2.5848 2.72862L3.22647 2.06362H2.34797L1.97989 1.26562Z" fill="white"/>
	<path d="M7.68848 1.26562L8.05714 2.06362H8.93448L8.2934 2.72862L8.53023 3.68996L7.68848 3.21279L6.84615 3.68996L7.08356 2.72862L6.44189 2.06362H7.3204L7.68848 1.26562Z" fill="white"/>
	<path d="M1.97989 9.4009L1.61122 8.6029H0.733887L1.37497 7.9379L1.13814 6.97656L1.97989 7.45373L2.82222 6.97656L2.5848 7.9379L3.22647 8.6029H2.34797L1.97989 9.4009Z" fill="white"/>
	<path d="M7.68848 9.4009L8.05714 8.6029H8.93448L8.2934 7.9379L8.53023 6.97656L7.68848 7.45373L6.84615 6.97656L7.08356 7.9379L6.44189 8.6029H7.3204L7.68848 9.4009Z" fill="white"/>
</svg>
