<svg width="20" height="20" viewBox="0 0 20 18" fill="none"
	xmlns="http://www.w3.org/2000/svg" class="no-hover-fill">
	<path d="M14 0H6V18H14V0Z" fill="white"/>
	<path d="M22 17C22 17.5525 21.5525 18 21 18H14V0H21C21.5525 0 22 0.4475 22 1V17Z" fill="#FE0000"/>
	<path d="M6 18H-1C-1.5525 18 -2 17.5525 -2 17V1C-2 0.4475 -1.5525 0 -1 0H6V18Z" fill="#FE0000"/>
	<path fill-rule="evenodd" clip-rule="evenodd" d="M10.4375 12.3438C10.4375 12.3438 10.2195 10.6768 10.3295 10.6943C11.2495 10.8368 11.683 10.9032 11.683 10.9032C11.206 10.0022 12.4045 9.56625 13.0205 9.04225C12.543 8.88075 12.608 8.93975 12.9155 7.79325C11.9185 8.10975 12 8.01725 11.7885 7.52275C11.7885 7.52275 11.711 7.61125 11.087 8.31575C10.998 8.41625 10.849 8.34925 10.88 8.19575C11.205 6.58825 11.2215 6.52275 11.2215 6.52275C10.5885 6.90475 10.612 6.92675 10.512 6.72925C10.1645 6.05175 9.99999 5.71875 9.99999 5.71875C9.99999 5.71875 9.83549 6.05225 9.48799 6.72875C9.38749 6.92575 9.41099 6.90425 8.77799 6.52225C8.77799 6.52225 8.79399 6.58775 9.11949 8.19525C9.15099 8.34875 9.00149 8.41625 8.91249 8.31525C8.28849 7.61075 8.21149 7.52225 8.21149 7.52225C7.99949 8.01725 8.08199 8.10925 7.08449 7.79275C7.39199 8.93925 7.45699 8.88025 6.97949 9.04175C7.59599 9.56575 8.79449 10.0017 8.31699 10.9028C8.31699 10.9028 8.75049 10.8363 9.67049 10.6938C9.78049 10.6763 9.59399 12.3748 9.59399 12.3748L10.4375 12.3438Z" fill="#FE0000"/>
</svg>
