<?xml version="1.0" encoding="utf-8"?>
<svg xmlns="http://www.w3.org/2000/svg" xmlns:xlink="http://www.w3.org/1999/xlink">
  <defs>
    <svg id="home-video-play" viewBox="0 0 17 18" xmlns="http://www.w3.org/2000/svg">
      <g fill="none" fill-rule="evenodd" stroke="none" stroke-width="1">
        <g fill="#FFFFFF" transform="translate(-19.000000, -19.000000)">
          <g id="Play-Button">
            <path
              d="M28.8289147,20.7688804 L36.1402489,35.2555299 C36.3890882,35.748579 36.1911169,36.3499984 35.6980678,36.5988377 C35.5583428,36.6693561 35.4040162,36.7060932 35.2475044,36.7060932 L20.624836,36.7060932 C20.0725512,36.7060932 19.624836,36.2583779 19.624836,35.7060932 C19.624836,35.5495815 19.6615731,35.3952548 19.7320915,35.2555299 L27.0434257,20.7688804 C27.292265,20.2758313 27.8936844,20.0778601 28.3867336,20.3266993 C28.5776077,20.4230325 28.7325815,20.5780062 28.8289147,20.7688804 Z"
              id="Play"
              transform="translate(27.936170, 27.853047) rotate(90.000000) translate(-27.936170, -27.853047) "></path>
          </g>
        </g>
      </g>
    </svg>

    <svg id="team-linked-in" xmlns="http://www.w3.org/2000/svg" viewBox="0 0 256 256">
      <g fill="none">
        <path d="M0 18.338C0 8.216 8.474 0 18.92 0h218.16C247.53 0 256 8.216 256 18.338v219.327C256 247.79 247.53 256 237.08 256H18.92C8.475 256 0 247.791 0 237.668V18.335z" fill="#069"></path><path d="M77.796 214.238V98.986H39.488v115.252H77.8zM58.65 83.253c13.356 0 21.671-8.85 21.671-19.91-.25-11.312-8.315-19.915-21.417-19.915-13.111 0-21.674 8.603-21.674 19.914 0 11.06 8.312 19.91 21.169 19.91h.248zM99 214.238h38.305v-64.355c0-3.44.25-6.889 1.262-9.346 2.768-6.885 9.071-14.012 19.656-14.012 13.858 0 19.405 10.568 19.405 26.063v61.65h38.304v-66.082c0-35.399-18.896-51.872-44.099-51.872-20.663 0-29.738 11.549-34.78 19.415h.255V98.99H99.002c.5 10.812-.003 115.252-.003 115.252z" fill="#fff"></path>
      </g>
    </svg>

    <svg id="home-wealth-tickmark" width="50" height="50" viewBox="0 0 50 50" fill="none" xmlns="http://www.w3.org/2000/svg">
      <circle cx="25" cy="25" r="24" fill="white" stroke="#4CAF50" stroke-width="2"/>
      <path d="M14 24.9217L21.1463 32.3208L36 18" stroke="#4CAF50" stroke-width="2" stroke-linecap="round"/>
    </svg>

    <svg id="home-dream-planner" viewBox="0 0 56 56" xmlns="http://www.w3.org/2000/svg">
      <g fill="none" fill-rule="evenodd" stroke="none" stroke-width="1">
        <path
          d="M33.13 20.555c-.203.122.902-.137 2.814-.137 3.172 0 5.775 2.52 5.775 5.57 0 3.09-2.603 5.612-5.775 5.612h-20.17c-3.172 0-5.775-2.52-5.775-5.57 0-2.94 2.357-5.33 5.318-5.554.15-.01.572-.99.45-.98 1.057-3.497 4.473-5.978 8.58-5.978 4.514 0 8.215 3.01 8.784 7.035z"
          fill="#b1acf5"></path>
        <g stroke="#6f66d1">
          <path
            d="M41.72 4.508c-3.32-.202-6.175.415-8.232 1.477-3.144 1.622-5.944 4.498-7.274 7.6m18.56-5.135c-3.387-.885-6.92-.378-9.8 1.187a12.97 12.97 0 0 0-5.376 5.494m12.784-3.117c-2.38-.224-4.227.1-6.37 1.397-1.636 1-2.94 2.53-3.783 4.352"
            stroke-linecap="round"
            stroke-width="1.5"></path>
          <g stroke-linecap="round">
            <path d="M15.74 19.735c1.057-3.497 4.473-5.978 8.58-5.978 4.514 0 8.215 3.01 8.784 7.035" stroke-width="1.3"></path>
            <path d="M31.408 22.786c1.057-1.545 2.887-2.48 4.8-2.48 3.172 0 5.775 2.52 5.775 5.57 0 3.09-2.603 5.612-5.775 5.612h-20.17c-3.172 0-5.775-2.52-5.775-5.57 0-3.09 2.603-5.57 5.775-5.57 1.75 0 3.375.773 4.473 2.074" stroke-width="1.5"></path>
          </g>
        </g>
      </g>
    </svg>

    <svg id="home-core-mutual-fund-portfolio" viewBox="0 0 56 56" xmlns="http://www.w3.org/2000/svg">
      <g fill="none" fill-rule="evenodd" stroke="none" stroke-width="1">
        <path d="M23.5884 40.3274C26.0715 40.3274 28.5135 39.6936 30.6832 38.4859C32.8529 37.2783 34.6785 35.5368 35.987 33.4264C37.2954 31.316 38.0436 28.9065 38.1606 26.4262C38.2775 23.9458 37.7594 21.4766 36.6553 19.2524C35.5512 17.0283 33.8977 15.1227 31.8512 13.7163C29.8048 12.3099 27.4332 11.449 24.9611 11.2154C22.489 10.9817 19.9982 11.3829 17.7245 12.3811C15.4508 13.3792 13.4695 14.9411 11.9682 16.919L23.5884 25.739L23.5884 40.3274Z" fill="#C8EAAD" stroke="#5B954F" stroke-width="1.5"></path>
        <path d="M23.5884 40.3274C20.8724 40.3274 18.2104 39.5692 15.902 38.1382C13.5936 36.7072 11.7305 34.6602 10.5225 32.2277C9.31445 29.7951 8.80948 27.0737 9.06441 24.3697C9.31934 21.6657 10.324 19.0866 11.9654 16.9227L23.5884 25.739L23.5884 40.3274Z" fill="#ABD48A" stroke="#5B954F" stroke-width="1.5"></path>
        <path d="M16.9603 30.0853L23.5485 19.0683H29.6032L37.1216 8.13008" stroke="#336B29" stroke-width="1.5" stroke-linecap="square"></path>
        <path d="M33.3492 7.60908H38.0317L38.5 11.8234" stroke="#336B29" stroke-width="1.5" stroke-linecap="round"></path>
      </g>
    </svg>

    <svg id="home-principal-protection" viewBox="0 0 56 56" xmlns="http://www.w3.org/2000/svg">
      <g fill="none" fill-rule="evenodd" id="Assets" stroke="none" stroke-width="1">
        <g id="goal-icons-copy" transform="translate(-31.000000, -34.000000)">
          <g id="Principal_Protection_Desktop" transform="translate(31.000000, 34.000000)">
            <g id="Group-6-Copy-2" stroke="#516ED7" stroke-width="1.5" transform="translate(14.000000, 2.000000)">
              <path
                d="M23.6590738,26.6460314 L16.1872062,32.4249418 C15.6096743,32.8716179 14.9186407,33.0982851 14.2257787,33.1040192 C13.5329167,33.1097532 12.8382262,32.8945541 12.2533807,32.4574977 L4.46280123,26.6355799 C2.12607242,24.8893371 0.75,22.1431293 0.75,19.2259962 L0.75,4.97896591 C0.75,4.9238763 0.768032542,4.87203412 0.799247076,4.82997509 L13.9275861,0.805506381 C13.9748046,0.791216697 14.0251954,0.791216697 14.0724139,0.805506381 L27.0724139,4.73968317 C27.1251419,4.75564018 27.1695384,4.78791606 27.2007529,4.82997509 C27.2319675,4.87203412 27.25,4.9238763 27.25,4.97896591 L27.25,19.3291069 C27.25,22.1924038 25.9239957,24.8942899 23.6590738,26.6460314 Z"
                fill="#C1CEFF"
                id="Rectangle"></path>
              <g id="Group-29" stroke-linecap="round" transform="translate(11.000000, 9.000000)">
                <path
                  d="M5.53366168,13.3688233 L0.00539214001,6.85594044 C1.52858162,6.85594044 0.858941444,6.85594044 1.17002532,6.85594044 C3.57999513,6.85594044 5.53366168,5.58623635 5.53366168,3.63223674 C5.53366168,1.67823713 3.57999513,0.408533037 1.17002532,0.408533037 C0.670945769,0.408533037 1.34058595,0.408533037 0.00539214001,0.408533037"
                  id="Path"
                  stroke-linejoin="round"></path>
                <line id="Line-6" x1="-3.34665629e-13" x2="7.48286733" y1="3.63785251" y2="3.63785251"></line>
                <line id="Line-6" x1="0.00105745952" x2="7.48392479" y1="0.402962963" y2="0.402962963"></line>
              </g>
            </g>
          </g>
        </g>
      </g>
    </svg>

    <svg id="home-explore-goals" viewBox="0 0 56 56" xmlns="http://www.w3.org/2000/svg">
      <g fill="none" fill-rule="evenodd" id="Assets" stroke="none" stroke-width="1">
        <g id="goal-icons2-copy-3" transform="translate(-30.000000, -864.000000)">
          <g id="Achieve_LG_Desktop" transform="translate(30.000000, 864.000000)">
            <g id="noun_goal_1623903" transform="translate(27.013158, 19.500000) rotate(-180.000000) translate(-27.013158, -19.500000) translate(8.513158, 1.000000)">
              <g id="Group" transform="translate(0.513158, 0.000000)">
                <g transform="translate(0.000000, 0.030379)">
                  <ellipse cx="15.1783784" cy="20.5143579" fill="#FFBDBD" id="Oval" rx="15.1783784" ry="15.1894737" stroke="#BF5757" stroke-width="1.5"></ellipse>
                  <ellipse cx="15.1783784" cy="20.5447368" fill="#FF9A9A" id="Oval" rx="8.85405405" ry="8.86052632" stroke="#BF5757" stroke-width="1.5"></ellipse>
                  <ellipse cx="15.1783784" cy="20.5143579" fill="#E26A6A" id="Oval" rx="3.04459459" ry="3.04736842" stroke="#BF5757" stroke-width="1.5"></ellipse>
                  <line id="Line-4" stroke="#BF5757" stroke-linecap="round" stroke-width="1.5" x1="15.1783784" x2="29.5549533" y1="20.5143579" y2="5.93107142"></line>
                  <path
                    d="M31.5998031,7.84868415 L28.3504216,7.84868415 C27.9711372,7.84868415 27.6642251,7.54118976 27.6642251,7.16193548 L27.6642251,3.91060977 C27.6642251,3.7285275 27.7365974,3.55382235 27.8652593,3.42505697 L30.833193,0.455070215 C31.0302065,0.258233557 31.3243864,0.200222043 31.58104,0.306185234 C31.8376935,0.412483763 32.0045519,0.66297266 32.0045519,0.940622948 L32.0045519,3.50553533 L34.5670668,3.50553533 C34.8444939,3.50553533 35.0951165,3.67286322 35.2009944,3.92938802 C35.3075424,4.18624809 35.2485724,4.48133541 35.0522291,4.6778368 L32.0849654,7.64748829 C31.9563036,7.77625366 31.7820741,7.84868415 31.5998031,7.84868415 Z"
                    fill="#BF5757"
                    fill-rule="nonzero"
                    id="Shape"></path>
                </g>
              </g>
            </g>
          </g>
        </g>
      </g>
    </svg>

    <svg id="home-long-term-wealth" viewBox="0 0 56 56" xmlns="http://www.w3.org/2000/svg">
      <g fill="none" fill-rule="evenodd" id="Assets" stroke="none" stroke-width="1">
        <g id="goal-icons2-copy-3" transform="translate(-31.000000, -284.000000)">
          <g id="Build_Wealth_Desktop" transform="translate(31.000000, 284.000000)">
            <g id="Group-7" stroke="#54894A" stroke-width="1.5" transform="translate(15.000000, 3.000000)">
              <g id="noun_growth_1351621">
                <path
                  d="M2.96723809,13.864133 C2.55318837,12.3727846 2.58769703,10.9650875 3.08112197,9.66182324 C3.58595682,8.32842239 4.60944857,7.39732293 6.09397621,6.88601032 C6.40966101,4.6685047 6.99601607,2.96145663 7.87390594,1.76319004 C9.12775587,0.0517606811 11.0110614,-0.75 13.16106,-0.75 C14.4027146,-0.75 15.3257508,-0.543101387 16.2353006,0.0004047592 C17.48137,0.744999866 18.2056747,1.97355368 18.4086838,3.61871346 C19.3840902,4.00317823 20.2907569,4.71346353 21.1300851,5.73431235 C22.3044028,7.1625985 22.6958729,9.47672242 22.3751029,12.6774051 C23.7658592,13.8666858 24.4670768,15.5134589 24.4670768,17.5582465 C24.4670768,21.1876497 23.7801501,23.3760568 22.1556673,25.2801824 C20.1249627,27.6604579 18.3329675,28.9859283 16.1323081,28.9859283 C15.0074385,28.9859283 15.0074385,28.9859283 12.9740764,28.9859283 C11.0475942,28.9859283 11.0475942,28.9859283 9.89374308,28.9859283 C6.29468214,28.9859283 3.37771716,26.0337998 2.10739674,21.7697422 C1.68536822,20.353128 1.4783704,18.5366427 1.64876434,17.1698785 C1.7692401,16.2035181 2.21187912,15.1064234 2.96723809,13.864133 Z"
                  fill="#ACE0A2"
                  id="Oval"></path>
                <line id="Line-7" stroke-linecap="round" x1="12.9852432" x2="12.9852432" y1="33.932646" y2="14.6761258"></line>
                <path d="M0.245170677,34.0700409 C4.47761551,34.0700409 8.84761339,34.0700409 13.3551643,34.0700409 C17.8627153,34.0700409 21.9887862,34.0700409 25.7333771,34.0700409" id="Line-6" stroke-linecap="round"></path>
                <line id="Path-2" stroke-linecap="round" x1="16.1323081" x2="12.9852432" y1="16.0553953" y2="19.8911888"></line>
                <polyline id="Path-2" points="17.3845857 18.8244916 13.7903582 21.9076927 13.7903582 26.333084 9.39577332 20.9983728" stroke-linecap="round" transform="translate(13.390180, 22.578788) scale(-1, 1) translate(-13.390180, -22.578788) "></polyline>
              </g>
            </g>
          </g>
        </g>
      </g>
    </svg>

    <svg id="home-short-term-money" viewBox="0 0 56 56" xmlns="http://www.w3.org/2000/svg">
      <g fill="none" fill-rule="evenodd" id="Assets" stroke="none" stroke-width="1">
        <g id="goal-icons2-copy-3" transform="translate(-31.000000, -400.000000)">
          <g id="Save_Smart_Desktop" transform="translate(31.000000, 400.000000)">
            <g id="Group-31" stroke="#B77A0A" stroke-width="1.5" transform="translate(11.000000, 3.000000)">
              <circle cx="16" cy="22.5" fill="#FFE1A8" id="Oval" r="15.5"></circle>
              <g id="Group-34" stroke-linecap="round" transform="translate(25.429033, 0.459295)">
                <line id="Line-6" x1="0" x2="5.48894259" y1="3" y2="3"></line>
                <line id="Line-6" transform="translate(2.744471, 3.000000) rotate(90.000000) translate(-2.744471, -3.000000) " x1="0" x2="5.48894259" y1="3" y2="3"></line>
              </g>
              <g id="Group-34" stroke-linecap="round" transform="translate(33.829033, 8.859295)">
                <line id="Line-6" x1="8.95934716e-13" x2="3.08894259" y1="1.8" y2="1.8"></line>
                <line id="Line-6" transform="translate(1.544471, 1.800000) rotate(90.000000) translate(-1.544471, -1.800000) " x1="5.89859411e-14" x2="3.08894259" y1="1.8" y2="1.8"></line>
              </g>
              <g id="noun_growth_1351621" stroke-linecap="round" transform="translate(10.893609, 14.734481)">
                <g id="Group-29" transform="translate(0.537829, 0.000000)">
                  <path
                    d="M6.9170771,16.7110291 L0.00674017501,8.56992556 C1.91072703,8.56992556 1.0736768,8.56992556 1.46253165,8.56992556 C4.47499392,8.56992556 6.9170771,6.98279544 6.9170771,4.54029593 C6.9170771,2.09779642 4.47499392,0.510666297 1.46253165,0.510666297 C0.838682212,0.510666297 1.67573244,0.510666297 0.00674017501,0.510666297"
                    id="Path"
                    stroke-linejoin="round"></path>
                  <line id="Line-6" x1="-4.18332036e-13" x2="9.35358417" y1="4.54731564" y2="4.54731564"></line>
                  <line id="Line-6" x1="0.0013218244" x2="9.35490599" y1="0.503703704" y2="0.503703704"></line>
                </g>
              </g>
            </g>
          </g>
        </g>
      </g>
    </svg>

    <svg id="home-tax-saver-plan" viewBox="0 0 56 56" xmlns="http://www.w3.org/2000/svg">
      <g fill="none" fill-rule="evenodd" id="Assets" stroke="none" stroke-width="1">
        <g id="goal-icons2-copy-3" transform="translate(-31.000000, -516.000000)">
          <g id="Save_Tax_Desktop" transform="translate(31.000000, 516.000000)">
            <g id="noun_tax-document_1688276" stroke="#5890DA" stroke-width="1.5" transform="translate(29.500000, 23.500000) scale(1, -1) translate(-29.500000, -23.500000) translate(15.000000, 7.000000)">
              <path
                d="M0.75,31.4330896 L3.0720818,30.2720487 L5.52974723,31.5008815 L7.98741267,30.2720487 L10.4450781,31.5008815 L12.9027435,30.2720487 L15.360409,31.5008815 L17.8180744,30.2720487 L20.2757399,31.5008815 L22.7334053,30.2720487 L25.054743,31.4327176 L25.0369853,2.45766544 C25.0369853,1.52016301 24.2668222,0.75 23.3293198,0.75 L2.45766544,0.75 C1.52016301,0.75 0.75,1.52016301 0.75,2.45766544 L0.75,31.4330896 Z"
                fill="#CCE2FF"
                id="Path"></path>
              <path
                d="M28.2414236,6.89720806 L4.18330747,6.89720806 C4.18330747,4.52479932 4.18330747,3.19523112 4.18330747,2.90850349 C4.18330747,1.67350349 3.67289801,0.753044471 2.37399674,0.753044471 L27.0125909,0.753044471 C27.6884489,0.753044471 28.2414236,1.30601919 28.2414236,1.98187719 L28.2414236,6.89720806 Z"
                fill="#8DBFFF"
                id="Path"></path>
              <g id="Group-11" transform="translate(14.000000, 19.500000) scale(-1, 1) translate(-14.000000, -19.500000) translate(8.000000, 12.000000)">
                <line id="Line-5" stroke-linecap="round" x1="11.2256818" x2="1.2221818" y1="2.04030849" y2="12.1483016"></line>
                <circle cx="5.384395" cy="2.47378131" id="Oval" r="1.473"></circle>
                <circle cx="7.01473069" cy="11.7845051" id="Oval-Copy" r="1.473"></circle>
              </g>
            </g>
          </g>
        </g>
      </g>
    </svg>

    <svg id="home-grow-wealth" viewBox="0 0 56 56" xmlns="http://www.w3.org/2000/svg">
      <g fill="none" fill-rule="evenodd" stroke="none" stroke-width="1">
        <g fill="#fff">
          <circle cx="28" cy="28" r="28"></circle>
          <path d="M15.4 7.55a.65.65 0 0 0-.65.65v25.6a.65.65 0 0 0 .65.65h25.2a.65.65 0 0 0 .65-.65V8.2a.65.65 0 0 0-.65-.65H15.4z" stroke="#bf5757" stroke-width="1.5"></path>
        </g>
        <g fill="#ff9a9a">
          <path d="M14.75 15.85h26.5V8.2a.65.65 0 0 0-.65-.65H15.4a.65.65 0 0 0-.65.65v7.65z" stroke="#bf5757" stroke-width="1.5"></path>
          <circle cx="33.46" cy="26.66" r="2.66"></circle>
        </g>
        <path d="M22.42 4.72v5.587m11.2-5.587v5.587" stroke="#bf5757" stroke-linecap="round" stroke-width="1.5"></path>
      </g>
    </svg>

    <svg id="home-retire-confident" viewBox="0 0 56 56" xmlns="http://www.w3.org/2000/svg">
      <g fill="none" fill-rule="evenodd" id="Assets" stroke="none" stroke-width="1">
        <g id="goal-icons-copy" transform="translate(-31.000000, -840.000000)">
          <g id="Retire_Con_Desktop" transform="translate(31.000000, 840.000000)">
            <g id="noun_lounge_2118128" transform="translate(12.000000, 5.000000)">
              <path
                d="M27.5996093,11.2618973 C27.5764824,11.259155 27.5534468,11.2596806 27.5303199,11.2573953 C27.3429735,5.63983655 22.7178845,1.127 17.0555572,1.127 L14.5004428,1.127 C8.83809264,1.127 4.21300367,5.63983655 4.02568009,11.2574411 C4.00255316,11.2597035 3.97951765,11.2591779 3.95639071,11.2618974 C2.90626354,11.3857285 3.496475,17.0234294 5.72702509,28.175 L25.8289749,28.175 C28.059525,17.0234294 28.6497365,11.3857285 27.5996093,11.2618973 Z"
                fill="#E9A97A"
                id="Path"></path>
              <path d="M6.762,19.182 C16.324429,16.8159408 23.7652769,18.8614587 24.794,19.1711212" id="Shape" stroke="#B66428" stroke-linecap="round" stroke-width="1.5"></path>
              <path
                d="M30.7258831,13.926897 C30.9354346,15.2165636 30.3360555,16.4484494 29.1985449,17.0651628 C29.0714273,17.1341145 28.992075,17.2672028 28.992075,17.4118473 L28.992075,30.1513497 C28.992075,30.490908 28.715883,30.7671 28.3765173,30.7671 L25.3965708,30.7671 C25.0572051,30.7671 24.7810131,30.490908 24.7810131,30.1513497 L24.7810131,14.4320934 C24.7810131,13.5779012 25.1473431,12.7622294 25.7863983,12.1942446 C26.3414788,11.7006043 27.0352332,11.4386648 27.7698193,11.4386648 C27.8955406,11.4391463 28.0171691,11.4461763 28.1396162,11.4606215 C29.4516247,11.6152813 30.5151759,12.6295263 30.7258831,13.926897 Z"
                fill="#E6965B"
                id="Path"
                stroke="#B66428"
                stroke-width="1.5"></path>
              <path
                d="M6.72588305,13.926897 C6.93543461,15.2165636 6.33605553,16.4484494 5.19854492,17.0651628 C5.07142726,17.1341145 4.992075,17.2672028 4.992075,17.4118473 L4.992075,30.1513497 C4.992075,30.490908 4.71588296,30.7671 4.37651728,30.7671 L1.39657079,30.7671 C1.0572051,30.7671 0.781013066,30.490908 0.781013066,30.1513497 L0.781013066,14.4320934 C0.781013066,13.5779012 1.14734308,12.7622294 1.78639831,12.1942446 C2.34147884,11.7006043 3.03523316,11.4386648 3.76981925,11.4386648 C3.8955406,11.4391463 4.0171691,11.4461763 4.13961617,11.4606215 C5.45162467,11.6152813 6.51517587,12.6295263 6.72588305,13.926897 Z"
                fill="#E6965B"
                id="Path"
                stroke="#B66428"
                stroke-width="1.5"
                transform="translate(3.774109, 21.102882) scale(-1, 1) translate(-3.774109, -21.102882) "></path>
              <path
                d="M4.18575872,10.6756939 C4.38100957,5.19119216 8.90062075,0.7889 14.4320934,0.7889 L14.4320934,0.7889 L17.1239066,0.7889 C22.655283,0.7889 27.17487,5.19102361 27.3702412,10.6753809"
                id="Path"
                stroke="#B66428"
                stroke-linecap="round"
                stroke-width="1.5"></path>
              <path d="M6.54949509,28.2631298 L24.5814951,28.2631298 L6.54949509,28.2631298 Z" id="Path" stroke="#B66428" stroke-width="1.5"></path>
            </g>
          </g>
        </g>
      </g>
    </svg>

    <svg id="home-emergency-money" viewBox="0 0 56 56" xmlns="http://www.w3.org/2000/svg">
      <g fill="none" fill-rule="evenodd" id="Assets" stroke="none" stroke-width="1">
        <g id="goal-icons-copy" transform="translate(-31.000000, -438.000000)">
          <g id="Emergency_Money_Desktop" transform="translate(31.000000, 438.000000)">
            <g id="Group-35" transform="translate(12.000000, 7.000000)">
              <path
                d="M7.88610751,20.75 C7.87194447,20.75 7.85780705,20.7512035 7.84384783,20.7535976 C7.70776357,20.776937 7.61636578,20.9061754 7.63970516,21.0422597 L8.52465888,26.2021349 C8.59875777,26.6341812 8.97335286,26.95 9.41170735,26.95 L11.5771917,26.95 C12.0202107,26.95 12.3973429,26.6275966 12.4662412,26.189968 L13.2772055,21.03888 C13.2792303,21.026019 13.2802473,21.0130194 13.2802473,21 C13.2802473,20.8619288 13.1683185,20.75 13.0302473,20.75 L7.88610751,20.75 Z"
                fill="#FFBDBD"
                id="Rectangle-Copy-2"
                stroke="#B26868"
                stroke-width="1.5"></path>
              <path
                d="M22.1864367,20.75 C22.1722508,20.75 22.1580907,20.7512074 22.1441096,20.7536092 C22.0080317,20.7769858 21.9166693,20.9062492 21.9400459,21.0423271 L22.8264823,26.2023774 C22.9006836,26.6343118 23.2752276,26.95 23.7134891,26.95 L25.7807753,26.95 C26.2187376,26.95 26.5931173,26.634732 26.6676477,26.2031579 L27.5588569,21.0425439 C27.5612835,21.0284925 27.5625035,21.0142593 27.5625035,21 C27.5625035,20.8619288 27.4505746,20.75 27.3125035,20.75 L22.1864367,20.75 Z"
                fill="#FFBDBD"
                id="Rectangle-Copy-3"
                stroke="#B26868"
                stroke-width="1.5"></path>
              <path
                d="M5.70784144,0.326648467 L8.48422132,0.809292678 C9.3357029,0.957313725 9.97675278,1.66651408 10.0382872,2.52857244 L10.0857651,3.19864144 C12.2692731,2.29581516 14.8435592,1.83963458 17.6,1.83963458 C25.4976719,1.83963458 31.9,5.69713746 31.9,12.85 C31.9,20.0028625 25.4976719,23.85 17.6,23.85 C10.6862423,23.85 4.91844912,20.9880369 3.58862093,15.4006596 L0.673401057,14.3928851 C0.270380999,14.2536224 4.30940941e-16,13.8741247 0,13.447722 L0,11.3826135 C1.69517397e-16,10.9536963 0.273528083,10.5725465 0.679873422,10.4352387 L3.86244002,9.35876536 C4.35789654,7.93128434 5.1644315,6.70357988 6.21681012,5.67863346 C5.8072828,5.42738459 5.49942306,5.01966296 5.37921259,4.52799202 L4.63317093,1.47661877 C4.50980867,0.972056735 4.81883214,0.463023521 5.32339418,0.339661262 C5.44927815,0.308883419 5.58016443,0.304453172 5.70784144,0.326648467 Z"
                fill="#FFBDBD"
                id="Combined-Shape"
                stroke="#B26868"
                stroke-width="1.5"></path>
              <circle cx="8.08463266" cy="9.14141716" fill="#C56565" id="Oval" r="1.1"></circle>
              <path d="M14.6796169,4.07085527 C16.7555807,3.74209978 18.9531126,3.76742139 21.2722127,4.1468201" id="Path-4" stroke="#B26868" stroke-linecap="round"></path>
              <path d="M31.9,9.35870723 C33.7620669,8.89561192 34.9741026,9.27407102 35.536107,10.4940845" id="Path-4" stroke="#B26868" stroke-linecap="round" stroke-width="1.5"></path>
            </g>
          </g>
        </g>
      </g>
    </svg>

  <svg id="home-cash-management" width="50px" height="33px" viewBox="0 0 50 33" version="1.1" xmlns="http://www.w3.org/2000/svg" xmlns:xlink="http://www.w3.org/1999/xlink">
    <g stroke="none" stroke-width="1" fill="none" fill-rule="evenodd">
      <g id="Start_SIP_Mobile-Copy" transform="translate(11.000000, 0.000000)" stroke="#B77A0A" stroke-width="1.5">
        <g id="noun_growth_1351621">
            <path d="M7.06338028,25.55 L4.06338028,25.55 C3.71820231,25.55 3.40570231,25.689911 3.17949681,25.9161165 C2.9532913,26.142322 2.81338028,26.454822 2.81338028,26.8 L2.81338028,30.8 C2.81338028,31.145178 2.9532913,31.457678 3.17949681,31.6838835 C3.40570231,31.910089 3.71820231,32.05 4.06338028,32.05 L7.06338028,32.05 C7.40855825,32.05 7.72105825,31.910089 7.94726376,31.6838835 C8.17346927,31.457678 8.31338028,31.145178 8.31338028,30.8 L8.31338028,26.8 C8.31338028,26.454822 8.17346927,26.142322 7.94726376,25.9161165 C7.72105825,25.689911 7.40855825,25.55 7.06338028,25.55 Z" id="Rectangle" fill="#E7C483"></path>
            <path d="M24.0633803,25.55 L21.0633803,25.55 C20.7182023,25.55 20.4057023,25.689911 20.1794968,25.9161165 C19.9532913,26.142322 19.8133803,26.454822 19.8133803,26.8 L19.8133803,30.8 C19.8133803,31.145178 19.9532913,31.457678 20.1794968,31.6838835 C20.4057023,31.910089 20.7182023,32.05 21.0633803,32.05 L24.0633803,32.05 C24.4085583,32.05 24.7210583,31.910089 24.9472638,31.6838835 C25.1734693,31.457678 25.3133803,31.145178 25.3133803,30.8 L25.3133803,26.8 C25.3133803,26.454822 25.1734693,26.142322 24.9472638,25.9161165 C24.7210583,25.689911 24.4085583,25.55 24.0633803,25.55 Z" id="Rectangle" fill="#E7C483"></path>
            <path d="M26,1.55 L2,1.55 C1.65482203,1.55 1.34232203,1.68991102 1.11611652,1.91611652 C0.889911016,2.14232203 0.75,2.45482203 0.75,2.8 L0.75,28.2 C0.75,28.545178 0.889911016,28.857678 1.11611652,29.0838835 C1.34232203,29.310089 1.65482203,29.45 2,29.45 L26,29.45 C26.345178,29.45 26.657678,29.310089 26.8838835,29.0838835 C27.110089,28.857678 27.25,28.545178 27.25,28.2 L27.25,2.8 C27.25,2.45482203 27.110089,2.14232203 26.8838835,1.91611652 C26.657678,1.68991102 26.345178,1.55 26,1.55 Z" id="Rectangle" fill="#E7C483"></path>
            <path d="M22,5.55 L6,5.55 C5.65482203,5.55 5.34232203,5.68991102 5.11611652,5.91611652 C4.88991102,6.14232203 4.75,6.45482203 4.75,6.8 L4.75,23.6 C4.75,23.945178 4.88991102,24.257678 5.11611652,24.4838835 C5.34232203,24.710089 5.65482203,24.85 6,24.85 L22,24.85 C22.345178,24.85 22.657678,24.710089 22.8838835,24.4838835 C23.110089,24.257678 23.25,23.945178 23.25,23.6 L23.25,6.8 C23.25,6.45482203 23.110089,6.14232203 22.8838835,5.91611652 C22.657678,5.68991102 22.345178,5.55 22,5.55 Z" id="Rectangle" fill="#FFE1A8"></path>
            <path d="M14,11.35 C13.003638,11.35 12.1025138,11.7589952 11.4566997,12.4564744 C10.8105883,13.1542747 10.4230769,14.134587 10.4230769,15.2730769 C10.4230769,16.260817 10.8234377,17.1550477 11.4707334,17.8023435 C12.1180292,18.4496392 13.01226,18.85 14,18.85 C14.996362,18.85 15.8974862,18.4410048 16.5433003,17.7435256 C17.1894117,17.0457253 17.5769231,16.065413 17.5769231,14.9269231 C17.5769231,13.939183 17.1765623,13.0449523 16.5292666,12.3976565 C15.8819708,11.7503608 14.98774,11.35 14,11.35 Z" id="Rectangle" fill="#FFE1A8"></path>
            <line x1="8.26696047" y1="15.0118606" x2="19.7559031" y2="15.0118606" id="Line-6" stroke-linecap="round"></line>
            <line x1="8.26696047" y1="15.0118606" x2="19.7559031" y2="15.0118606" id="Line-6" stroke-linecap="round" transform="translate(14.011432, 15.011861) rotate(90.000000) translate(-14.011432, -15.011861) "></line>
        </g>
      </g>
    </g>
  </svg>

    <svg id="home-child-education" viewBox="0 0 56 56" xmlns="http://www.w3.org/2000/svg">
      <g fill="none" fill-rule="evenodd" id="Assets" stroke="none" stroke-width="1">
        <g id="goal-icons-copy" transform="translate(-31.000000, -711.000000)">
          <g id="Childs_Edu_Desktop" transform="translate(31.000000, 711.000000)">
            <g id="Group-17" stroke="#5A82DF" stroke-width="1.5" transform="translate(9.000000, 4.000000)">
              <path
                d="M29.6579108,18.3459094 C29.6579108,20.7176499 27.737347,22.6581649 25.3899913,22.6581649 L10.8790647,22.6581649 C8.53170892,22.6581649 6.6111451,20.7176499 6.6111451,18.3459094 L6.6111451,8.21758475 L29.6579108,8.21758475 L29.6579108,18.3459094 Z"
                fill="#93B4FF"
                id="Path"></path>
              <path
                d="M18.1385756,13.3005704 L1.04556504,6.93538389 C0.838539495,6.85829061 0.733208579,6.62796679 0.810301857,6.42094124 C0.851778559,6.30956011 0.940638591,6.22239208 1.05279643,6.18306406 L18.1853024,0.175570404 L18.1853024,0.175570404 L35.1391702,6.13769602 C35.347573,6.21098454 35.4571048,6.43934051 35.3838163,6.64774335 C35.3446138,6.75921948 35.258127,6.84765713 35.1475529,6.88933609 L18.1385756,13.3005704 L18.1385756,13.3005704 Z"
                fill="#BDD1FF"
                id="Path"
                stroke-linejoin="round"></path>
              <line id="Line" stroke-linecap="round" x1="34.2544143" x2="34.2544143" y1="7.3065352" y2="18.2731503"></line>
            </g>
          </g>
        </g>
      </g>
    </svg>

    <svg id="smart-transfer-plan" viewBox="0 0 56 56" width="56px" xmlns="http://www.w3.org/2000/svg">
      <g fill="none" fill-rule="evenodd" id="Assets" stroke="none" stroke-width="1">
        <g id="Plan-icons-for-web-2" transform="translate(-31.000000, -968.000000)">
          <g id="STP_Mobile" transform="translate(31.000000, 968.000000)">
            <g id="Group-31" stroke="#B77A0A" stroke-width="1.5" transform="translate(17.000000, 5.000000)">
              <path
                d="M11.2,29.1 C13.3564527,29.1 13.2019478,27.9982938 14.189295,26.4472558 C16.0580735,23.5115645 17.8074741,19.6566568 18.944439,17.9250271 C20.6821059,15.2785112 21.8787058,13.4731871 21.8787058,10.6566138 C21.8787058,4.82635697 17.0976864,0.1 11.2,0.1 C5.30231365,0.1 0.521294214,4.82635697 0.521294214,10.6566138 C0.521294214,13.5085095 1.85538686,15.4481168 3.52430743,17.9959281 C4.61973823,19.668237 6.36109476,23.536119 8.23119538,26.4714206 C9.21024723,28.0081361 9.04354726,29.1 11.2,29.1 Z"
                fill="#FFE1A8"
                id="Oval"></path>
              <g id="Group-34" stroke-linecap="round" transform="translate(22.000000, 18.000000)">
                <line id="Line-6" x1="0" x2="5.48894259" y1="3" y2="3"></line>
                <line id="Line-6" transform="translate(2.744471, 3.000000) rotate(90.000000) translate(-2.744471, -3.000000) " x1="0" x2="5.48894259" y1="3" y2="3"></line>
              </g>
              <path
                d="M14.8964756,26.75 L7.50352445,26.75 C7.103118,26.75 6.740618,26.5877032 6.47821962,26.3253048 C6.21582123,26.0629064 6.05352445,25.7004064 6.05352445,25.3 L6.05352445,22.25 L16.3464756,22.25 L16.3464756,25.3 C16.3464756,25.7004064 16.1841788,26.0629064 15.9217804,26.3253048 C15.659382,26.5877032 15.296882,26.75 14.8964756,26.75 Z"
                fill="#E7C483"
                id="Rectangle"></path>
              <path
                d="M13.9176545,30.5102189 C13.4561953,30.9716782 12.8186953,31.2570966 12.1145322,31.2570966 L10.2909957,31.2570966 C9.58683266,31.2570966 8.94933266,30.9716782 8.48787343,30.5102189 C8.02641419,30.0487597 7.74099572,29.4112597 7.74099572,28.7070966 L7.74099572,26.7570966 L14.6645322,26.7570966 L14.6645322,28.7070966 C14.6645322,29.4112597 14.3791137,30.0487597 13.9176545,30.5102189 Z"
                fill="#E7C483"
                id="Rectangle"></path>
            </g>
          </g>
        </g>
      </g>
    </svg>

    <svg id="home-my-first-crore" viewBox="0 0 56 56" xmlns="http://www.w3.org/2000/svg">
      <g fill="none" fill-rule="evenodd" id="Assets" stroke="none" stroke-width="1">
        <g id="goal-icons-copy" transform="translate(-31.000000, -293.000000)">
          <g id="First_Crore_Desktop" transform="translate(31.000000, 293.000000)">
            <g id="Group" transform="translate(12.000000, 7.000000)">
              <polygon fill="#E9F1FC" id="Path" points="27.3289866 0.421010173 23.1366057 6.37934351 16.7655399 0.421010173"></polygon>
              <polygon fill="#E9F1FC" id="Path" points="15.6364383 0.633882529 9.28839153 6.26270602 5.07299169 0.633882529"></polygon>
              <polygon fill="#AED1FD" id="Path" points="27.7436718 0.800688106 31.959685 6.3041638 23.8518015 6.3041638"></polygon>
              <polygon fill="#8DBFFF" id="Path" points="0.487318931 6.96135641 9.20559463 6.96135641 15.1256133 21.5493148"></polygon>
              <polygon fill="#AED1FD" id="Path" points="4.70401558 0.787366905 8.65803116 6.41511089 0.75 6.41511089"></polygon>
              <polygon fill="#AED1FD" id="Path" points="16.3924225 22.2131505 9.59440645 6.54988429 23.0077195 6.54988429"></polygon>
              <polygon fill="#8DBFFF" id="Path" points="16.9552184 22.5113634 23.4133237 7.07843302 32.2557815 7.07843302"></polygon>
              <polygon fill="#CCE2FF" id="Path" points="16.2664955 0.633882529 22.2905861 6.41511089 10.354715 6.41511089"></polygon>
              <line id="Line-2" stroke="#5890DA" stroke-linecap="round" stroke-width="1.5" x1="0.75" x2="31.959685" y1="6.74583333" y2="6.74583333"></line>
              <polyline id="Line-3" points="4.96686302 0.495342389 9.32044191 6.74583333 16.3924225 22.9132201 23.1910355 6.74583333 27.5661279 0.495342389" stroke="#5890DA" stroke-linejoin="round" stroke-width="1.5"></polyline>
              <polyline id="Shape" points="9.50045995 6.74583333 16.2664955 0.301751572 23.1910355 6.74583333" stroke="#5890DA" stroke-linecap="round" stroke-linejoin="round" stroke-width="1.5"></polyline>
              <polygon id="Path-2" points="16.3924225 23.2081046 32.6589681 6.74583333 27.7534127 0.301751572 4.80946779 0.301751572 0.155191288 6.74583333" stroke="#5890DA" stroke-linejoin="round" stroke-width="1.5"></polygon>
            </g>
          </g>
        </g>
      </g>
    </svg>

    <svg id="home-customer-testimonial" viewBox="0 0 158 132" xmlns="http://www.w3.org/2000/svg">
      <g id="Page-1" stroke="none" stroke-width="1" fill="none" fill-rule="evenodd" opacity="0.2">
          <g id="V8.0_new" transform="translate(-152.000000, -3492.000000)" fill="#C6CDCB" fill-rule="nonzero">
              <path d="M215,3624 L215,3560.67423 L191.375,3560.67423 L191.375,3553.8282 C191.375,3532.86224 199.25,3520.16856 215,3515.74716 L215,3492 C173,3495.70827 152,3523.7342 152,3576.0778 L152,3624 L215,3624 Z M310,3624 L310,3560.67423 L286.375,3560.67423 L286.375,3553.8282 C286.375,3532.86224 294.25,3520.16856 310,3515.74716 L310,3492 C268,3495.70827 247,3523.7342 247,3576.0778 L247,3624 L310,3624 Z" id="“" style="mix-blend-mode: multiply;"></path>
          </g>
      </g>
    </svg>

    <svg id="home-check-mark" viewBox="0 0 20 15" xmlns="http://www.w3.org/2000/svg">
      <g fill="none" fill-rule="evenodd" stroke="none" stroke-linecap="round" stroke-width="1">
        <g stroke="#F48023" stroke-width="2.50304285" transform="translate(-520.000000, -24.000000)">
          <g transform="translate(518.000000, 20.000000)">
            <polyline points="4 12.6624868 9.3260788 17 20 6"></polyline>
          </g>
        </g>
      </g>
    </svg>

    <svg id="home-call-icon" viewBox="0 0 24 24" xmlns="http://www.w3.org/2000/svg">
      <g fill="none" fill-rule="evenodd" stroke="none" stroke-width="1">
        <g fill="#FFFFFF" transform="translate(-82.000000, -16.000000)">
          <g transform="translate(66.000000, 0.000000)">
            <path
              d="M17.3333333,16 C16.596,16 16,16.596 16,17.3333333 C16,29.8506667 26.1493333,40 38.6666667,40 C39.404,40 40,39.404 40,38.6666667 L40,34 C40,33.264 39.404,32.668 38.6666667,32.668 C37.0026667,32.668 35.4026667,32.4 33.904,31.9093333 C33.7706667,31.8666667 33.6306667,31.8453333 33.492,31.8453333 C33.152,31.8453333 32.8106667,31.976 32.5506667,32.236 L29.616,35.1733333 C25.84,33.2533333 22.7533333,30.1666667 20.8306667,26.392 L23.764,23.4493333 C24.1306667,23.084 24.2386667,22.5573333 24.0906667,22.096 C23.6,20.596 23.332,18.996 23.332,17.3333333 C23.332,16.596 22.736,16 22,16 L17.3333333,16 Z"></path>
          </g>
        </g>
      </g>
    </svg>

    <svg id="home-call-gray-icon" viewBox="0 0 24 24" xmlns="http://www.w3.org/2000/svg">
      <g fill="none" fill-rule="evenodd" stroke="none" stroke-width="1">
        <g fill="#969696" transform="translate(-82.000000, -16.000000)">
          <g transform="translate(66.000000, 0.000000)">
            <path
              d="M17.3333333,16 C16.596,16 16,16.596 16,17.3333333 C16,29.8506667 26.1493333,40 38.6666667,40 C39.404,40 40,39.404 40,38.6666667 L40,34 C40,33.264 39.404,32.668 38.6666667,32.668 C37.0026667,32.668 35.4026667,32.4 33.904,31.9093333 C33.7706667,31.8666667 33.6306667,31.8453333 33.492,31.8453333 C33.152,31.8453333 32.8106667,31.976 32.5506667,32.236 L29.616,35.1733333 C25.84,33.2533333 22.7533333,30.1666667 20.8306667,26.392 L23.764,23.4493333 C24.1306667,23.084 24.2386667,22.5573333 24.0906667,22.096 C23.6,20.596 23.332,18.996 23.332,17.3333333 C23.332,16.596 22.736,16 22,16 L17.3333333,16 Z"></path>
          </g>
        </g>
      </g>
    </svg>

    <svg id="home-chevron-right" viewBox="0 0 8 14" xmlns="http://www.w3.org/2000/svg">
      <g fill="none" fill-rule="evenodd" stroke="none" stroke-width="1">
        <defs>
          <path
            d="M5.58578644,7 L0.292893219,12.2928932 C-0.0976310729,12.6834175 -0.0976310729,13.3165825 0.292893219,13.7071068 C0.683417511,14.0976311 1.31658249,14.0976311 1.70710678,13.7071068 L7.70710678,7.70710678 C8.09763107,7.31658249 8.09763107,6.68341751 7.70710678,6.29289322 L1.70710678,0.292893219 C1.31658249,-0.0976310729 0.683417511,-0.0976310729 0.292893219,0.292893219 C-0.0976310729,0.683417511 -0.0976310729,1.31658249 0.292893219,1.70710678 L5.58578644,7 Z"
            id="home-chevron-r"></path>
        </defs>
        <g transform="translate(-492.000000, -25.000000)">
          <g id="chevron-right" transform="translate(492.000000, 25.000000)">
            <mask fill="white" id="mask-2">
              <use xlink:href="#home-chevron-r"></use>
            </mask>
            <use fill="#D8D8D8" fill-rule="nonzero" xlink:href="#home-chevron-r"></use>
          </g>
        </g>
      </g>
    </svg>

    <svg id="home-right-arrow" viewBox="0 0 42 42" xmlns="http://www.w3.org/2000/svg">
      <defs>
        <circle cx="18" cy="18" id="home-right-arrow-a" r="18"></circle>
        <filter height="130.6%" id="home-right-arrow-b" width="130.6%" x="-15.3%" y="-9.7%">
          <feoffset dy="2" in="SourceAlpha"></feoffset>
          <fegaussianblur stddeviation="1.5"></fegaussianblur>
          <fecolormatrix values="0 0 0 0 0 0 0 0 0 0 0 0 0 0 0 0 0 0 0.101726399 0"></fecolormatrix>
        </filter>
        <path d="M18.546 18l-6.203 5.67c-.458.418-.458 1.097 0 1.515s1.2.418 1.657 0l7.03-6.43c.458-.418.458-1.097 0-1.515L14 10.814c-.458-.418-1.2-.418-1.657 0s-.458 1.097 0 1.515L18.546 18z" id="home-right-arrow-c"></path>
      </defs>
      <g fill-rule="evenodd" transform="matrix(-1 0 0 1 39 1)">
        <use fill="#000" filter="url(#home-right-arrow-b)" xlink:href="#home-right-arrow-a"></use>
        <use fill="#fff" xlink:href="#home-right-arrow-a"></use>
        <use fill="#0fac83" fill-rule="nonzero" transform="matrix(-1 0 0 1 33.375 0)" xlink:href="#home-right-arrow-c"></use>
      </g>
    </svg>

    <svg id="home-left-arrow" viewBox="0 0 42 42" xmlns="http://www.w3.org/2000/svg">
      <defs>
        <circle cx="18" cy="18" id="home-left-arrow-a" r="18"></circle>
        <filter height="130.6%" id="homw-left-arrow-b" width="130.6%" x="-15.3%" y="-9.7%">
          <feoffset dy="2" in="SourceAlpha"></feoffset>
          <fegaussianblur stddeviation="1.5"></fegaussianblur>
          <fecolormatrix values="0 0 0 0 0 0 0 0 0 0 0 0 0 0 0 0 0 0 0.101726399 0"></fecolormatrix>
        </filter>
        <path d="M18.546 18l-6.203 5.67c-.458.418-.458 1.097 0 1.515s1.2.418 1.657 0l7.03-6.43c.458-.418.458-1.097 0-1.515L14 10.814c-.458-.418-1.2-.418-1.657 0s-.458 1.097 0 1.515L18.546 18z" id="home-left-arrow-c"></path>
      </defs>
      <g fill-rule="evenodd" transform="translate(3 1)">
        <use fill="#000" filter="url(#homw-left-arrow-b)" xlink:href="#home-left-arrow-a"></use>
        <use fill="#fff" xlink:href="#home-left-arrow-a"></use>
        <use fill="#0fac83" fill-rule="nonzero" transform="matrix(-1 0 0 1 33.375 0)" xlink:href="#home-left-arrow-c"></use>
      </g>
    </svg>

    <svg id="carousel-right-arrow-with-border" viewBox="0 0 42 42" xmlns="http://www.w3.org/2000/svg">
      <defs>
        <circle cx="18" cy="18" id="carousel-right-arrow-a" r="18" stroke="#e5e5e5" stroke-width="1"></circle>
        <filter height="130.6%" id="carousel-right-arrow-b" width="130.6%" x="-15.3%" y="-9.7%">
          <feoffset dy="2" in="SourceAlpha"></feoffset>
          <fegaussianblur stddeviation="1.5"></fegaussianblur>
          <fecolormatrix values="0 0 0 0 0 0 0 0 0 0 0 0 0 0 0 0 0 0 0.101726399 0"></fecolormatrix>
        </filter>
        <path d="M18.546 18l-6.203 5.67c-.458.418-.458 1.097 0 1.515s1.2.418 1.657 0l7.03-6.43c.458-.418.458-1.097 0-1.515L14 10.814c-.458-.418-1.2-.418-1.657 0s-.458 1.097 0 1.515L18.546 18z" id="carousel-right-arrow-c"></path>
      </defs>
      <g fill-rule="evenodd" transform="matrix(-1 0 0 1 39 1)">
        <use fill="#000" filter="url(#carousel-right-arrow-b)" xlink:href="#carousel-right-arrow-a"></use>
        <use fill="#fff" xlink:href="#carousel-right-arrow-a"></use>
        <use fill="#0fac83" fill-rule="nonzero" transform="matrix(-1 0 0 1 33.375 0)" xlink:href="#carousel-right-arrow-c"></use>
      </g>
    </svg>

    <svg id="carousel-left-arrow-with-border" viewBox="0 0 42 42" xmlns="http://www.w3.org/2000/svg">
      <defs>
        <circle cx="18" cy="18" id="carousel-left-arrow-a" r="18" stroke="#e5e5e5" stroke-width="1"></circle>
        <filter height="130.6%" id="carousel-left-arrow-b" width="130.6%" x="-15.3%" y="-9.7%">
          <feoffset dy="2" in="SourceAlpha"></feoffset>
          <fegaussianblur stddeviation="1.5"></fegaussianblur>
          <fecolormatrix values="0 0 0 0 0 0 0 0 0 0 0 0 0 0 0 0 0 0 0.101726399 0"></fecolormatrix>
        </filter>
        <path d="M18.546 18l-6.203 5.67c-.458.418-.458 1.097 0 1.515s1.2.418 1.657 0l7.03-6.43c.458-.418.458-1.097 0-1.515L14 10.814c-.458-.418-1.2-.418-1.657 0s-.458 1.097 0 1.515L18.546 18z" id="carousel-left-arrow-c"></path>
      </defs>
      <g fill-rule="evenodd" transform="translate(3 1)">
        <use fill="#000" filter="url(#carousel-left-arrow-b)" xlink:href="#carousel-left-arrow-a"></use>
        <use fill="#fff" xlink:href="#carousel-left-arrow-a"></use>
        <use fill="#0fac83" fill-rule="nonzero" transform="matrix(-1 0 0 1 33.375 0)" xlink:href="#home-left-arrow-c"></use>
      </g>
    </svg>

    <svg id="green-right-arrow" viewBox="0 0 8 12" fill="none" xmlns="http://www.w3.org/2000/svg">
      <path d="M5.23667 6L0.274587 10.5368C-0.0915291 10.8715 -0.0915291 11.4142 0.274587 11.7489C0.640704 12.0837 1.2343 12.0837 1.60041 11.7489L7.22541 6.60609C7.59153 6.27136 7.59153 5.72864 7.22541 5.39391L1.60041 0.251051C1.2343 -0.0836838 0.640704 -0.0836838 0.274587 0.251051C-0.0915291 0.585786 -0.0915291 1.1285 0.274587 1.46323L5.23667 6Z" fill="#0FAC83"/>
    </svg>

    <svg id="accordion-with-radius-arrow" viewBox="0 0 15 9" xmlns="http://www.w3.org/2000/svg">
      <g fill="none" fill-rule="evenodd" id="Page-1" stroke="none" stroke-width="1">
        <g fill="#576574" id="M" transform="translate(-299.000000, -832.000000)">
          <polygon id="arrow" points="302 836.5 309.56 829 311 830.428571 304.88 836.5 311 842.571429 309.56 844" transform="translate(306.500000, 836.500000) scale(1, -1) rotate(90.000000) translate(-306.500000, -836.500000) "></polygon>
        </g>
      </g>
    </svg>

    <svg id="home-close" viewBox="0 0 64 64" xmlns="http://www.w3.org/2000/svg">
      <path
        d="M28.94 31.786L.613 60.114c-.787.787-.787 2.062 0 2.85.393.394.91.6 1.424.6s1.03-.196 1.424-.6l28.54-28.54 28.54 28.54c.394.394.91.6 1.424.6s1.03-.196 1.424-.6c.787-.787.787-2.062 0-2.85L35.064 31.786 63.4 3.438c.787-.787.787-2.062 0-2.85s-2.062-.786-2.848 0l-28.56 28.56L3.44.6C2.654-.196 1.38-.196.593.6s-.787 2.062 0 2.85L28.94 31.786z"
        fill="#ffffff"></path>
    </svg>

    <svg id="home-back" viewBox="0 0 14 14" xmlns="http://www.w3.org/2000/svg">
      <path d="M14 1.4L12.6 0 7 5.6 1.4 0 0 1.4 5.6 7 0 12.6 1.4 14 7 8.4l5.6 5.6 1.4-1.4L8.4 7z" fill="#000" fill-rule="evenodd"></path>
    </svg>

    <svg id="faq-expand-more" viewBox="0 0 24 24" xmlns="http://www.w3.org/2000/svg">
      <path d="M0 0h24v24H0z" fill="none"/><path d="M16.59 8.59L12 13.17 7.41 8.59 6 10l6 6 6-6z"/>
    </svg>

    <svg id="home-carousel-next" viewBox="0 0 24 24" xmlns="http://www.w3.org/2000/svg">
      <path d="M0 0h24v24H0z" fill="none"/><path d="M10 6L8.59 7.41 13.17 12l-4.58 4.59L10 18l6-6z"/>
    </svg>

    <svg id="home-carousel-before" viewBox="0 0 24 24" xmlns="http://www.w3.org/2000/svg">
      <path d="M0 0h24v24H0z" fill="none"/><path d="M15.41 7.41L14 6l-6 6 6 6 1.41-1.41L10.83 12z"/>
    </svg>

    <svg id="testimonial-quote" viewBox="0 0 158 132" xmlns="http://www.w3.org/2000/svg">
      <g id="Page-1" stroke="none" stroke-width="1" fill="none" fill-rule="evenodd" opacity="0.335077195">
        <g id="V8.0" transform="translate(-152.000000, -3444.000000)" fill="#C6CDCB" fill-rule="nonzero">
          <path d="M215,3576 L215,3512.67423 L191.375,3512.67423 L191.375,3505.8282 C191.375,3484.86224 199.25,3472.16856 215,3467.74716 L215,3467.74716 L215,3444 C173,3447.70827 152,3475.7342 152,3528.0778 L152,3528.0778 L152,3576 L215,3576 Z M310,3576 L310,3512.67423 L286.375,3512.67423 L286.375,3505.8282 C286.375,3484.86224 294.25,3472.16856 310,3467.74716 L310,3467.74716 L310,3444 C268,3447.70827 247,3475.7342 247,3528.0778 L247,3528.0778 L247,3576 L310,3576 Z" id="“" style="mix-blend-mode: multiply;"></path>
        </g>
      </g>
    </svg>

    <svg id="external-link-arrow" viewBox="0 0 15 15" xmlns="http://www.w3.org/2000/svg">
      <g id="Page-1" stroke="none" stroke-width="0" fill="none" fill-rule="evenodd">
          <g id="V8.0" transform="translate(-274.000000, -6427.000000)" fill="#007aff" fill-rule="nonzero">
              <g id="Group-85" transform="translate(92.000000, 6130.000000)">
                  <g id="Group-84" transform="translate(0.000000, 28.000000)">
                      <g id="Group-8-Copy-4" transform="translate(0.000000, 249.000000)">
                          <polygon id="Path" transform="translate(190.000000, 27.000000) rotate(135.000000) translate(-190.000000, -27.000000) " points="199 25.875 185.30875 25.875 191.5975 19.58625 190 18 181 27 190 36 191.58625 34.41375 185.30875 28.125 199 28.125"></polygon>
                      </g>
                  </g>
              </g>
          </g>
      </g>
    </svg>

    <svg id="forward-link-arrow" viewBox="0 0 16 16" xmlns="http://www.w3.org/2000/svg">
      <g id="Page-1" stroke="none" stroke-width="1" fill="none" fill-rule="evenodd">
          <g id="V8.0_Mobile" transform="translate(-157.000000, -637.000000)" fill="#FFFFFF" fill-rule="nonzero">
              <g id="Group-14-Copy" transform="translate(14.000000, 622.000000)">
                  <g id="Group-7" transform="translate(20.000000, 10.000000)">
                      <polygon id="Path" transform="translate(131.000000, 13.000000) rotate(-180.000000) translate(-131.000000, -13.000000) " points="139 12 126.83 12 132.42 6.41 131 5 123 13 131 21 132.41 19.59 126.83 14 139 14"></polygon>
                  </g>
              </g>
          </g>
      </g>
    </svg>

    <svg id="lightning-icon" viewBox="0 0 9 12" xmlns="http://www.w3.org/2000/svg">
      <g fill="none" fill-rule="evenodd" id="Assets" stroke="none" stroke-linejoin="round" stroke-width="1">
        <g fill="#007aff" stroke="#007aff" stroke-width="0.8" transform="translate(-309.000000, -487.000000)">
          <polygon points="316.295676 487 310 493.987678 313.31878 493.987678 310 499 317 491.896666 313.31878 491.896666"></polygon>
        </g>
      </g>
    </svg>

    <svg id="external-link-icon" width="13px" height="13px" viewBox="0 0 13 13" version="1.1" xmlns="http://www.w3.org/2000/svg" xmlns:xlink="http://www.w3.org/1999/xlink">
      <g id="Page-1" stroke="none" stroke-width="1" fill="none" fill-rule="evenodd">
        <g id="ECAS_Desktop" transform="translate(-268.000000, -574.000000)" fill-rule="nonzero">
          <g id="Group-3-Copy-2" transform="translate(105.000000, 556.000000)">
            <polygon id="external-poly-path" fill="#ffffff" transform="translate(170.000000, 24.000000) rotate(135.000000) translate(-170.000000, -24.000000) " points="178 23 165.83 23 171.42 17.41 170 16 162 24 170 32 171.41 30.59 165.83 25 178 25"></polygon>
          </g>
        </g>
      </g>
    </svg>

    <svg id="external-link-blue-icon" width="13px" height="13px" viewBox="0 0 13 13" version="1.1" xmlns="http://www.w3.org/2000/svg" xmlns:xlink="http://www.w3.org/1999/xlink">
      <g id="Page-1" stroke="none" stroke-width="1" fill="none" fill-rule="evenodd">
        <g id="ECAS_Desktop" transform="translate(-268.000000, -574.000000)" fill-rule="nonzero">
          <g id="Group-3-Copy-2" transform="translate(105.000000, 556.000000)">
            <polygon id="external-poly-path" fill="#007aff" transform="translate(170.000000, 24.000000) rotate(135.000000) translate(-170.000000, -24.000000) " points="178 23 165.83 23 171.42 17.41 170 16 162 24 170 32 171.41 30.59 165.83 25 178 25"></polygon>
          </g>
        </g>
      </g>
    </svg>
  </defs>
</svg>