<svg width="16" height="14" viewBox="0 0 16 14" fill="none" xmlns="http://www.w3.org/2000/svg">
<path d="M4 11C4 11.5523 3.55228 12 3 12H1C0.448 12 0 11.552 0 11C0 10.448 0.448 10 1 10H3C3.55228 10 4 10.4477 4 11Z" fill="#737373"/>
<path d="M15 2H1C0.448 2 0 1.552 0 1C0 0.448 0.448 0 1 0H15C15.552 0 16 0.448 16 1C16 1.552 15.552 2 15 2Z" fill="#737373"/>
<path d="M4 6C4 6.55228 3.55228 7 3 7H1C0.448 7 0 6.552 0 6C0 5.448 0.448 5 1 5H3C3.55228 5 4 5.44772 4 6Z" fill="#737373"/>
<path d="M15 13C15.3905 12.6095 15.3905 11.9765 15 11.586L13.433 10.019C13.785 9.424 14 8.74 14 8C14 5.794 12.206 4 10 4C7.794 4 6 5.794 6 8C6 10.206 7.794 12 10 12C10.74 12 11.424 11.785 12.019 11.433L13.586 13C13.9765 13.3905 14.6095 13.3905 15 13ZM10 10C8.897 10 8 9.103 8 8C8 6.897 8.897 6 10 6C11.103 6 12 6.897 12 8C12 9.103 11.103 10 10 10Z" fill="#737373"/>
</svg>
