<svg fill="none" height="6" viewBox="0 0 9 6" width="9" xmlns="http://www.w3.org/2000/svg"><path clip-rule="evenodd" d="m.234473.834563c.150023-.149977.353469-.23423.5656-.23423.212127 0 .415577.084253.565597.23423l2.6344 2.634397 2.6344-2.634397c.0738-.076408.16208-.137354.25968-.179281.0976-.041928.20258-.063997.3088-.06492.10623-.000923.21157.019318.30989.059543.09831.040225.18763.099627.26275.174741.07511.075115.13452.164436.17474.262754.04023.09832.06047.20366.05954.30988-.00092.10623-.02299.2112-.06492.30881-.04192.0976-.10287.18588-.17928.25967l-3.2 3.2c-.15002.14998-.35347.23423-.5656.23423s-.41557-.08425-.5656-.23423l-3.199997-3.2c-.1499764-.15002-.23422886-.35347-.23422886-.5656s.08425246-.415575.23422886-.565597z" fill="#737373" fill-rule="evenodd"/></svg>