<svg width="16" height="16" viewBox="0 0 16 16" fill="none" xmlns="http://www.w3.org/2000/svg">
<path d="M9.87239 8.78802C10.7203 9.25243 11.6968 9.42674 12.653 9.28434C13.6092 9.14195 14.4926 8.69067 15.1684 7.99935C14.7558 7.57706 14.2629 7.24155 13.7188 7.01257C13.1746 6.78359 12.5901 6.66576 11.9997 6.66602C11.1932 6.6673 10.4008 6.87758 9.69976 7.27635C8.99872 7.67512 8.413 8.24877 7.99972 8.94135C7.58644 8.24877 7.00072 7.67512 6.29969 7.27635C5.59865 6.87758 4.80624 6.6673 3.99972 6.66602C3.40934 6.66576 2.82486 6.78359 2.28069 7.01257C1.73652 7.24155 1.24364 7.57706 0.831055 7.99935C1.50684 8.69067 2.39021 9.14195 3.34642 9.28434C4.30262 9.42674 5.27916 9.25243 6.12706 8.78802C6.70517 9.26896 7.1046 9.93046 7.26105 10.666H4.66639C4.56962 10.6661 4.47401 10.6872 4.38622 10.7279C4.29843 10.7686 4.22055 10.8279 4.158 10.9018C4.09545 10.9756 4.04973 11.0622 4.02401 11.1555C3.99829 11.2488 3.99318 11.3466 4.00905 11.442L4.67572 15.442C4.7016 15.5977 4.78186 15.7391 4.90223 15.8412C5.02259 15.9432 5.17525 15.9993 5.33306 15.9993H10.6664C10.8242 15.9993 10.9769 15.9432 11.0972 15.8412C11.2176 15.7391 11.2978 15.5977 11.3237 15.442L11.9904 11.442C12.0063 11.3466 12.0012 11.2488 11.9754 11.1555C11.9497 11.0622 11.904 10.9756 11.8414 10.9018C11.7789 10.8279 11.701 10.7686 11.6132 10.7279C11.5254 10.6872 11.4298 10.6661 11.3331 10.666H8.73839C8.89484 9.93046 9.29428 9.26896 9.87239 8.78802Z" fill="#737373"/>
<path d="M7.99935 0C7.34008 0 6.69561 0.195497 6.14745 0.561768C5.59929 0.928039 5.17204 1.44863 4.91975 2.05772C4.66746 2.66681 4.60145 3.33703 4.73007 3.98363C4.85868 4.63024 5.17615 5.22418 5.64233 5.69036C6.1085 6.15653 6.70245 6.474 7.34905 6.60262C7.99565 6.73124 8.66587 6.66522 9.27496 6.41293C9.88405 6.16064 10.4046 5.7334 10.7709 5.18523C11.1372 4.63707 11.3327 3.9926 11.3327 3.33333C11.3316 2.4496 10.9801 1.60237 10.3552 0.97748C9.73031 0.352588 8.88308 0.00105857 7.99935 0V0ZM8.66602 4.66667H7.33268V2H8.66602V4.66667Z" fill="#737373"/>
</svg>
