<svg width="8" height="8" viewBox="0 0 8 8" fill="none"
	xmlns="http://www.w3.org/2000/svg">
	<path fill-rule="evenodd" clip-rule="evenodd" d="M0.834449 7.7656C0.684472 7.61557 0.60022 7.41213 0.60022 7.2C0.60022 6.98786 0.684472 6.78442 0.834449 6.6344L3.46885 4L0.834449 1.3656C0.688723 1.21471 0.608087 1.01263 0.609909 0.802875C0.611732 0.593118 0.695868 0.392468 0.844194 0.244141C0.992521 0.095815 1.19317 0.0116796 1.40293 0.0098569C1.61269 0.00803417 1.81477 0.08867 1.96565 0.234396L5.16565 3.4344C5.31563 3.58442 5.39988 3.78786 5.39988 4C5.39988 4.21213 5.31563 4.41557 5.16565 4.5656L1.96565 7.7656C1.81563 7.91557 1.61218 7.99983 1.40005 7.99983C1.18792 7.99983 0.984471 7.91557 0.834449 7.7656Z" fill="#343434" />
</svg>
