<svg fill="none" width="120" height="32" viewBox="0 0 107 29"
	xmlns="http://www.w3.org/2000/svg"
	xmlns:xlink="http://www.w3.org/1999/xlink">
	<clipPath id="a">
		<path d="m0 0h107v29h-107z"/>
	</clipPath>
	<g clip-path="url(#a)" clip-rule="evenodd" fill="#f58024" fill-rule="evenodd">
		<path d="m24.0665 16.8554-.1236 6.855h4.1721v-6.855c0-1.5668 1.2654-2.8412 2.8224-2.8412h1.9621v-4.01424l-1.9621-.06136c-3.7953 0-6.8709 3.0961-6.8709 6.9168z"/>
		<path d="m75.2746 9.9386c-3.795 0-6.8719 3.0961-6.8719 6.9167 0 3.8203 3.0769 6.9168 6.8719 6.9168 3.794 0 6.8702-3.0965 6.8702-6.9168 0-3.8206-3.0762-6.9167-6.8702-6.9167zm2.4532 6.9167c0 1.362-1.101 2.47-2.4532 2.47-1.3539 0-2.4542-1.108-2.4542-2.47 0-1.3622 1.1003-2.4705 2.4542-2.4705 1.3522 0 2.4532 1.1083 2.4532 2.4705z"/>
		<path d="m46.2314 19.9226c-1.5446 0-2.8008-1.2646-2.8008-2.8194 0-1.5549 1.2562-2.8198 2.8008-2.8198 1.5442 0 2.8007 1.2649 2.8007 2.8198 0 1.5548-1.2565 2.8194-2.8007 2.8194zm-6.8137-3.0185-.0053 12.1553h3.7973v-5.8027c.911.4543 1.9365.7107 3.0217.7107 3.7656 0 6.8183-3.0738 6.8183-6.8642 0-3.7908-3.0527-6.8649-6.8183-6.8649-3.6997 0-6.7093 2.9673-6.8137 6.6658z"/>
		<path d="m60.5282 19.9267c-1.5442 0-2.8011-1.2653-2.8011-2.8201 0-1.5545 1.2569-2.8195 2.8011-2.8195 1.5438 0 2.8004 1.265 2.8004 2.8195 0 1.5548-1.2566 2.8201-2.8004 2.8201zm-3.0221-8.9737v-5.80267h-3.7973v12.15557c.1105 3.6983 3.1194 6.6656 6.8194 6.6656 3.7653 0 6.8186-3.0741 6.8186-6.8649 0-3.7902-3.0533-6.8642-6.8186-6.8642-1.0855 0-2.1111.2566-3.0221.7106z"/>
		<path d="m34.0015 9.98475 4.3163-.00984v13.74029h-4.3163z"/>
		<path d="m97.1017.00610272v9.76638728h9.5433v-9.77249h-3.595v1.30835h2.295v7.15578h-6.9436v-7.14967h2.3716v-1.30835728z"/>
		<path d="m100.882 7.30499c-.37-.12714-.713-.31531-1.0297-.56382l.5127-.78285c.271.20377.549.35837.83.46313.281.10511.551.15766.811.15766.246 0 .438-.04916.574-.14816.136-.09866.204-.23055.204-.39634v-.01899c0-.09561-.031-.17799-.09-.24817-.06-.07019-.143-.13223-.247-.18648-.104-.0539-.225-.10171-.36-.14307-.136-.04136-.277-.08442-.423-.12918-.183-.05085-.368-.1112-.554-.18138-.187-.06984-.355-.16071-.504-.27191-.148-.11155-.27-.24987-.365-.41566-.095-.16546-.142-.36922-.142-.61129v-.01899c0-.24207.046-.45702.138-.64451.091-.18783.217-.34888.379-.48246.161-.13358.351-.23563.569-.30581.219-.06984.451-.1051.697-.1051.317 0 .636.05119.959.1529.322.10205.616.24208.882.42041l-.455.82116c-.241-.14613-.484-.26242-.731-.34854-.247-.08577-.474-.12883-.683-.12883-.221 0-.394.0478-.517.14307-.123.09561-.185.21665-.185.36312v.01898c0 .08951.031.16715.095.23394.063.06713.147.12748.251.18139.105.05424.225.10374.361.14816.136.04441.276.09221.422.14307.183.05764.367.12443.55.20071.184.07663.35.17054.498.28174.149.11155.27.24683.365.40583.095.15935.143.35362.143.58281v.01899c0 .26716-.048.49974-.143.69707-.095.19766-.226.36141-.393.49194-.168.13053-.365.22919-.593.29598-.228.06713-.472.10036-.731.10036-.36 0-.725-.06374-1.095-.19088z"/>
		<path d="m18.2989 19.6965c-1.5567 0-2.8223-1.2744-2.8223-2.8412 0-1.5667 1.2656-2.8411 2.8223-2.8411.8743 0 1.6465.4113 2.1652 1.0415l3.1325-2.6048c-1.261-1.5348-3.1655-2.5123-5.2977-2.5123-3.7957 0-6.8723 3.0961-6.8723 6.9167 0 3.8203 3.0766 6.9168 6.8723 6.9168 2.1187 0 4.0118-.9663 5.2724-2.4841l-3.1173-2.6212c-.5183.6242-1.2865 1.0297-2.1551 1.0297z"/>
		<path d="m10.847 21.1215c-.3021.5818-.7096 1.0761-1.22048 1.4816-.51193.4055-1.10704.7137-1.78635.9246-.67998.2109-1.40577.3163-2.17803.3163-1.05685 0-2.06756-.1268-3.0318-.3797-.96558-.2533-1.841574-.6249-2.63034-1.1151l1.66173-3.1667c.23407.1692.51091.3255.82985.4689.31861.1438.65035.2703.99489.3801.34352.1099.68705.1943 1.03092.2533.34386.0593.65876.0885.94436.0885.95548 0 1.43406-.295 1.43406-.8863 0-.2868-.14651-.5072-.44052-.6591-.29369-.1519-.65843-.2953-1.0939-.4306-.43716-.1349-.91136-.2831-1.42261-.4434-.51159-.1607-.98613-.3842-1.42194-.6717-.43614-.2871-.8019-.6628-1.09524-1.1273-.29402-.4645-.440526-1.068-.440526-1.8118 0-.6584.138756-1.2534.415936-1.7854.27651-.5326.65472-.9886 1.13196-1.3684.47757-.38 1.05348-.6757 1.7237-.8865.67156-.2116 1.39331-.31739 2.16456-.31739.92314 0 1.72033.08099 2.39189.24069.67055.1611 1.34208.393 2.01268.6974l-1.50951 3.0907c-.3863-.2027-.79719-.3716-1.23333-.5065-.43716-.1353-.84737-.2034-1.23367-.2034-.46983 0-.83929.0888-1.10703.2661-.26843.178-.40247.4099-.40247.6971 0 .2373.14684.4272.43985.5703.29368.1434.66348.2786 1.10771.4051.44422.1268.92247.2658 1.43473.4177.51159.1526.98983.3679 1.43439.6465.44423.2791.81333.6419 1.10773 1.0897.293.4476.4395 1.026.4395 1.7352 0 .7432-.1506 1.4057-.4527 1.9895z"/>
		<path d="m38.4451 5.58331c0 1.36193-1.1006 2.47025-2.4532 2.47025-1.3542 0-2.4542-1.10832-2.4542-2.47025 0-1.36226 1.1-2.47058 2.4542-2.47058 1.3526 0 2.4532 1.10832 2.4532 2.47058z"/>
		<path d="m88.2795 13.5802-2.6577-3.65381h-4.8016l5.0856 6.91781-4.9866 6.8564h4.6932l2.6671-3.6278 2.667 3.6278h4.6932l-4.9865-6.8564 5.0852-6.91781h-4.8013z"/>
	</g>
</svg>
