<svg width="19" height="18" viewBox="0 0 19 18" fill="none" xmlns="http://www.w3.org/2000/svg">
<path fill-rule="evenodd" clip-rule="evenodd" d="M12.6346 15.6573H11.2417V13.0661H12.5956C12.9742 13.0661 13.3159 13.2348 13.5084 13.4295C13.6252 13.5463 13.7052 13.6436 13.7744 13.8015C14.0621 14.4482 13.7744 15.203 13.1493 15.5167C13.0304 15.5772 12.8033 15.6573 12.6346 15.6573ZM12.4204 11.3466H11.2417V9.23778H12.3447C12.6497 9.23778 12.9979 9.37188 13.184 9.50165C13.8782 9.97749 13.6663 10.901 12.8638 11.2276C12.7557 11.2709 12.561 11.3466 12.4204 11.3466ZM0.704036 7.59398C0.704036 8.69705 1.39184 9.00635 2.32837 9.00635H4.10627V12.5838C4.73568 12.5838 7.44362 12.6249 7.88918 12.5362C8.03193 12.5081 8.21145 12.4259 8.29797 12.348C8.51642 12.1447 8.61159 11.8744 8.61159 11.4612V10.1851H6.92885V10.901H6.00097V9.27671H9.55894V15.6378H2.96643C2.90587 15.6378 2.46247 15.1641 2.3911 15.0927C2.18346 14.8851 1.90661 14.5866 1.68599 14.4028C1.62976 14.3574 1.59299 14.3141 1.53891 14.26C1.44591 14.167 0.771086 13.4576 0.68457 13.4338C0.68457 13.5311 0.704036 13.5398 0.704036 13.6458V17.1086H12.9244C13.4824 17.1086 14.0383 16.9485 14.4601 16.6717C14.5358 16.6219 14.5812 16.5895 14.6504 16.5354C15.0029 16.2477 15.1695 16.066 15.4117 15.6335C15.734 15.0668 15.747 14.8224 15.747 14.2081C15.747 13.7107 15.5177 13.1375 15.2149 12.7482C14.9986 12.4713 14.6872 12.2572 14.3735 12.0993C14.3151 12.069 14.2654 12.0474 14.2005 12.0236C14.1162 11.9911 14.0729 12.0041 14.0643 11.9068C14.194 11.8765 14.419 11.7078 14.5206 11.6278C14.9359 11.3055 15.2063 10.6761 15.2063 10.09C15.2063 9.52977 15.176 9.25725 14.897 8.77276C14.566 8.19743 14.0448 7.78431 13.4111 7.55288C13.1234 7.44906 12.6735 7.32362 12.2864 7.32362H6.00097V5.89178H6.92885V6.58823H8.61159V5.21695C8.61159 4.87954 8.3369 4.60053 8.12494 4.46426C7.88269 4.3107 7.51716 4.21121 7.12351 4.21121H4.04788V7.30415H2.65713V3.53422C2.65713 3.45635 3.5742 2.60634 3.75372 2.42682C3.80996 2.36842 4.08897 2.06345 4.14521 2.06345H14.9921C15.057 2.06345 15.6994 2.74044 15.7513 2.79451C15.8075 2.84858 16.4824 3.49096 16.4824 3.55368V5.67981C16.4824 5.75984 16.2358 5.9372 16.1861 5.98478L14.8386 7.34308H17.3519C17.6785 7.34524 17.5919 7.28685 17.9467 6.93213C17.9942 6.88455 18.1846 6.72882 18.1846 6.66609V0.458579C18.1846 0.415321 18.1694 0.402344 18.1262 0.402344H0.704036V7.59398Z" fill="#2E3092"/>
<path fill-rule="evenodd" clip-rule="evenodd" d="M16.4683 15.7539C16.4683 15.847 16.079 16.1562 15.973 16.2644C15.8043 16.4309 15.19 17.0214 15.1338 17.1079L18.0169 17.1101C18.0883 17.1101 18.151 17.1252 18.151 17.0495V9.93359H16.4683V15.7539Z" fill="#2E3092"/>
<path fill-rule="evenodd" clip-rule="evenodd" d="M17.2998 7.9375C17.7648 7.9375 18.1433 8.31601 18.1433 8.78319C18.1433 9.25038 17.7648 9.62889 17.2998 9.62889C16.8326 9.62889 16.4541 9.25038 16.4541 8.78319C16.4541 8.31601 16.8326 7.9375 17.2998 7.9375Z" fill="#2E3092"/>
</svg>
